<svg xmlns="http://www.w3.org/2000/svg" xmlns:xlink="http://www.w3.org/1999/xlink" width="500" zoomAndPan="magnify" viewBox="0 0 375 374.999991" height="500" preserveAspectRatio="xMidYMid meet" version="1.0"><defs><g/></defs><path fill="rgb(100%, 100%, 100%)" d="M 311.140625 146.324219 C 289.527344 106.957031 240.96875 81.167969 187.371094 81.167969 C 133.773438 81.167969 85.214844 106.957031 63.601562 146.324219 C 63.28125 146.882812 63.019531 147.46875 62.816406 148.082031 C 62.617188 148.691406 62.472656 149.320312 62.394531 149.957031 C 62.316406 150.597656 62.296875 151.238281 62.34375 151.882812 C 62.390625 152.523438 62.5 153.15625 62.671875 153.777344 C 62.84375 154.398438 63.070312 154.996094 63.359375 155.574219 C 63.648438 156.148438 63.992188 156.691406 64.386719 157.199219 C 64.785156 157.707031 65.226562 158.171875 65.710938 158.59375 C 66.199219 159.015625 66.722656 159.386719 67.28125 159.703125 C 67.84375 160.023438 68.429688 160.28125 69.039062 160.484375 C 69.652344 160.6875 70.277344 160.832031 70.914062 160.910156 C 71.554688 160.988281 72.195312 161.007812 72.839844 160.960938 C 73.480469 160.914062 74.113281 160.804688 74.734375 160.632812 C 75.355469 160.460938 75.953125 160.230469 76.527344 159.941406 C 77.105469 159.652344 77.644531 159.3125 78.15625 158.914062 C 78.664062 158.519531 79.128906 158.078125 79.550781 157.589844 C 79.96875 157.105469 80.339844 156.578125 80.660156 156.019531 C 82.714844 152.667969 84.941406 149.429688 87.339844 146.316406 C 89.738281 143.199219 92.296875 140.21875 95.011719 137.371094 C 97.730469 134.527344 100.585938 131.835938 103.589844 129.292969 C 106.589844 126.753906 109.71875 124.375 112.972656 122.167969 C 116.226562 119.960938 119.589844 117.929688 123.058594 116.078125 C 126.527344 114.226562 130.085938 112.5625 133.730469 111.089844 C 137.375 109.613281 141.089844 108.339844 144.871094 107.257812 C 148.652344 106.179688 152.480469 105.304688 156.355469 104.632812 C 155.34375 105.648438 154.382812 106.710938 153.472656 107.820312 C 152.566406 108.929688 151.710938 110.082031 150.917969 111.277344 C 150.121094 112.46875 149.386719 113.699219 148.710938 114.964844 C 148.039062 116.230469 147.425781 117.527344 146.878906 118.851562 C 146.332031 120.179688 145.851562 121.527344 145.433594 122.902344 C 145.019531 124.273438 144.671875 125.664062 144.394531 127.074219 C 144.117188 128.480469 143.90625 129.898438 143.769531 131.324219 C 143.628906 132.753906 143.558594 134.183594 143.5625 135.617188 C 143.5625 137.054688 143.632812 138.484375 143.777344 139.910156 C 143.917969 141.339844 144.128906 142.757812 144.410156 144.164062 C 144.691406 145.570312 145.039062 146.960938 145.457031 148.332031 C 145.875 149.707031 146.355469 151.054688 146.90625 152.378906 C 147.457031 153.703125 148.070312 155 148.746094 156.265625 C 149.421875 157.527344 150.160156 158.757812 150.957031 159.949219 C 151.753906 161.140625 152.609375 162.292969 153.519531 163.402344 C 154.429688 164.507812 155.390625 165.570312 156.40625 166.585938 C 157.417969 167.597656 158.480469 168.5625 159.589844 169.46875 C 160.699219 170.378906 161.851562 171.234375 163.042969 172.03125 C 164.234375 172.828125 165.464844 173.5625 166.730469 174.238281 C 167.992188 174.914062 169.289062 175.527344 170.613281 176.074219 C 171.9375 176.625 173.289062 177.105469 174.660156 177.523438 C 176.03125 177.941406 177.421875 178.289062 178.828125 178.566406 C 180.234375 178.847656 181.652344 179.058594 183.078125 179.199219 C 184.503906 179.339844 185.9375 179.410156 187.371094 179.410156 C 188.804688 179.410156 190.234375 179.339844 191.664062 179.199219 C 193.089844 179.058594 194.507812 178.847656 195.914062 178.566406 C 197.320312 178.289062 198.707031 177.941406 200.082031 177.523438 C 201.453125 177.105469 202.800781 176.625 204.128906 176.074219 C 205.453125 175.527344 206.746094 174.914062 208.011719 174.238281 C 209.277344 173.5625 210.507812 172.828125 211.699219 172.03125 C 212.890625 171.234375 214.042969 170.378906 215.152344 169.46875 C 216.257812 168.5625 217.320312 167.597656 218.335938 166.585938 C 219.351562 165.570312 220.3125 164.507812 221.222656 163.402344 C 222.132812 162.292969 222.988281 161.140625 223.785156 159.949219 C 224.582031 158.757812 225.320312 157.527344 225.996094 156.265625 C 226.671875 155 227.285156 153.703125 227.835938 152.378906 C 228.382812 151.054688 228.867188 149.707031 229.285156 148.332031 C 229.703125 146.960938 230.050781 145.570312 230.332031 144.164062 C 230.613281 142.757812 230.824219 141.339844 230.964844 139.910156 C 231.105469 138.484375 231.179688 137.054688 231.179688 135.617188 C 231.179688 134.183594 231.113281 132.753906 230.972656 131.324219 C 230.832031 129.898438 230.625 128.480469 230.347656 127.074219 C 230.066406 125.664062 229.71875 124.273438 229.304688 122.902344 C 228.890625 121.527344 228.410156 120.179688 227.863281 118.851562 C 227.3125 117.527344 226.703125 116.230469 226.027344 114.964844 C 225.355469 113.699219 224.617188 112.46875 223.824219 111.277344 C 223.027344 110.082031 222.175781 108.929688 221.269531 107.820312 C 220.359375 106.710938 219.398438 105.648438 218.386719 104.632812 C 222.246094 105.296875 226.0625 106.164062 229.835938 107.230469 C 233.605469 108.300781 237.308594 109.566406 240.945312 111.027344 C 244.582031 112.484375 248.128906 114.136719 251.59375 115.972656 C 255.054688 117.808594 258.410156 119.820312 261.660156 122.015625 C 264.90625 124.207031 268.03125 126.5625 271.03125 129.085938 C 274.03125 131.609375 276.890625 134.28125 279.605469 137.105469 C 282.324219 139.933594 284.882812 142.890625 287.285156 145.988281 C 289.6875 149.085938 291.921875 152.300781 293.984375 155.632812 C 294.40625 156.398438 294.917969 157.09375 295.523438 157.71875 C 296.128906 158.347656 296.808594 158.882812 297.558594 159.324219 C 298.308594 159.769531 299.105469 160.105469 299.945312 160.335938 C 300.785156 160.5625 301.644531 160.675781 302.515625 160.671875 C 304.164062 160.683594 305.714844 160.292969 307.167969 159.511719 C 307.734375 159.210938 308.261719 158.855469 308.757812 158.453125 C 309.253906 158.046875 309.703125 157.597656 310.109375 157.101562 C 310.515625 156.605469 310.871094 156.078125 311.171875 155.511719 C 311.472656 154.949219 311.714844 154.359375 311.902344 153.746094 C 312.085938 153.132812 312.210938 152.507812 312.269531 151.871094 C 312.332031 151.234375 312.328125 150.59375 312.261719 149.957031 C 312.199219 149.320312 312.070312 148.699219 311.882812 148.085938 C 311.695312 147.472656 311.445312 146.886719 311.140625 146.324219 Z M 187.371094 159.605469 C 186.570312 159.605469 185.773438 159.566406 184.976562 159.488281 C 184.179688 159.410156 183.390625 159.292969 182.605469 159.136719 C 181.820312 158.980469 181.046875 158.789062 180.28125 158.554688 C 179.515625 158.324219 178.761719 158.054688 178.023438 157.746094 C 177.285156 157.441406 176.5625 157.097656 175.855469 156.722656 C 175.152344 156.34375 174.464844 155.933594 173.800781 155.488281 C 173.136719 155.042969 172.492188 154.570312 171.875 154.0625 C 171.257812 153.554688 170.664062 153.015625 170.101562 152.449219 C 169.535156 151.886719 168.996094 151.292969 168.488281 150.675781 C 167.984375 150.054688 167.507812 149.414062 167.0625 148.75 C 166.617188 148.082031 166.207031 147.398438 165.828125 146.691406 C 165.453125 145.984375 165.109375 145.261719 164.804688 144.523438 C 164.5 143.785156 164.230469 143.03125 163.996094 142.265625 C 163.765625 141.5 163.570312 140.726562 163.414062 139.941406 C 163.257812 139.15625 163.140625 138.363281 163.0625 137.570312 C 162.984375 136.773438 162.945312 135.972656 162.945312 135.171875 C 162.945312 134.375 162.984375 133.574219 163.0625 132.777344 C 163.140625 131.984375 163.257812 131.191406 163.414062 130.40625 C 163.570312 129.621094 163.765625 128.847656 163.996094 128.082031 C 164.230469 127.316406 164.5 126.5625 164.804688 125.824219 C 165.109375 125.085938 165.453125 124.363281 165.828125 123.65625 C 166.207031 122.949219 166.617188 122.265625 167.0625 121.597656 C 167.507812 120.933594 167.984375 120.292969 168.488281 119.671875 C 168.996094 119.054688 169.535156 118.460938 170.101562 117.898438 C 170.664062 117.332031 171.257812 116.792969 171.875 116.285156 C 172.492188 115.777344 173.136719 115.300781 173.800781 114.859375 C 174.464844 114.414062 175.152344 114.003906 175.855469 113.625 C 176.5625 113.25 177.285156 112.90625 178.023438 112.601562 C 178.761719 112.292969 179.515625 112.023438 180.28125 111.792969 C 181.046875 111.558594 181.820312 111.367188 182.605469 111.210938 C 183.390625 111.054688 184.179688 110.9375 184.976562 110.859375 C 185.773438 110.78125 186.570312 110.742188 187.371094 110.742188 C 188.171875 110.742188 188.96875 110.78125 189.765625 110.859375 C 190.5625 110.9375 191.351562 111.054688 192.136719 111.210938 C 192.921875 111.367188 193.695312 111.558594 194.460938 111.792969 C 195.226562 112.023438 195.976562 112.292969 196.71875 112.601562 C 197.457031 112.90625 198.179688 113.25 198.882812 113.625 C 199.589844 114.003906 200.273438 114.414062 200.941406 114.859375 C 201.605469 115.300781 202.246094 115.777344 202.867188 116.285156 C 203.484375 116.792969 204.074219 117.332031 204.640625 117.898438 C 205.207031 118.460938 205.742188 119.054688 206.25 119.671875 C 206.757812 120.292969 207.234375 120.933594 207.679688 121.597656 C 208.125 122.265625 208.535156 122.949219 208.910156 123.65625 C 209.289062 124.363281 209.628906 125.085938 209.9375 125.824219 C 210.242188 126.5625 210.511719 127.316406 210.742188 128.082031 C 210.976562 128.847656 211.167969 129.621094 211.324219 130.40625 C 211.480469 131.191406 211.597656 131.984375 211.675781 132.777344 C 211.757812 133.574219 211.796875 134.375 211.796875 135.171875 C 211.796875 135.972656 211.757812 136.773438 211.675781 137.570312 C 211.597656 138.363281 211.480469 139.15625 211.324219 139.941406 C 211.167969 140.726562 210.976562 141.5 210.742188 142.265625 C 210.511719 143.03125 210.242188 143.785156 209.9375 144.523438 C 209.628906 145.261719 209.289062 145.984375 208.910156 146.691406 C 208.535156 147.398438 208.125 148.082031 207.679688 148.75 C 207.234375 149.414062 206.757812 150.054688 206.25 150.675781 C 205.742188 151.292969 205.207031 151.886719 204.640625 152.449219 C 204.074219 153.015625 203.484375 153.554688 202.867188 154.0625 C 202.246094 154.570312 201.605469 155.042969 200.941406 155.488281 C 200.273438 155.933594 199.589844 156.34375 198.882812 156.722656 C 198.179688 157.097656 197.457031 157.441406 196.71875 157.746094 C 195.976562 158.054688 195.226562 158.324219 194.460938 158.554688 C 193.695312 158.789062 192.921875 158.980469 192.136719 159.136719 C 191.351562 159.292969 190.5625 159.410156 189.765625 159.488281 C 188.96875 159.566406 188.171875 159.605469 187.371094 159.605469 Z M 187.371094 159.605469 " fill-opacity="1" fill-rule="nonzero"/><g fill="rgb(100%, 100%, 100%)" fill-opacity="1"><g transform="translate(77.825021, 289.167871)"><g><path d="M 4.265625 -15.8125 L 4.265625 -9.90625 L 10.71875 -9.90625 L 10.71875 -8 L 4.265625 -8 L 4.265625 -1.90625 L 11.484375 -1.90625 L 11.484375 0 L 1.953125 0 L 1.953125 -17.71875 L 11.484375 -17.71875 L 11.484375 -15.8125 Z M 4.265625 -15.8125 "/></g></g></g><g fill="rgb(100%, 100%, 100%)" fill-opacity="1"><g transform="translate(98.320331, 289.167871)"><g><path d="M 14.34375 -17.703125 L 8.578125 -6.671875 L 8.578125 0 L 6.265625 0 L 6.265625 -6.671875 L 0.484375 -17.703125 L 3.046875 -17.703125 L 7.421875 -8.734375 L 11.78125 -17.703125 Z M 14.34375 -17.703125 "/></g></g></g><g fill="rgb(100%, 100%, 100%)" fill-opacity="1"><g transform="translate(120.618657, 289.167871)"><g><path d="M 4.265625 -15.8125 L 4.265625 -9.90625 L 10.71875 -9.90625 L 10.71875 -8 L 4.265625 -8 L 4.265625 -1.90625 L 11.484375 -1.90625 L 11.484375 0 L 1.953125 0 L 1.953125 -17.71875 L 11.484375 -17.71875 L 11.484375 -15.8125 Z M 4.265625 -15.8125 "/></g></g></g><g fill="rgb(100%, 100%, 100%)" fill-opacity="1"><g transform="translate(141.113969, 289.167871)"><g/></g></g><g fill="rgb(100%, 100%, 100%)" fill-opacity="1"><g transform="translate(155.3622, 289.167871)"><g><path d="M 15.546875 0 L 13.234375 -2.34375 C 12.367188 -1.4375 11.441406 -0.765625 10.453125 -0.328125 C 9.472656 0.0976562 8.367188 0.3125 7.140625 0.3125 C 5.921875 0.3125 4.835938 0.09375 3.890625 -0.34375 C 2.953125 -0.789062 2.222656 -1.421875 1.703125 -2.234375 C 1.191406 -3.046875 0.9375 -3.992188 0.9375 -5.078125 C 0.9375 -6.316406 1.285156 -7.40625 1.984375 -8.34375 C 2.691406 -9.28125 3.734375 -10.019531 5.109375 -10.5625 C 4.566406 -11.207031 4.175781 -11.800781 3.9375 -12.34375 C 3.695312 -12.882812 3.578125 -13.476562 3.578125 -14.125 C 3.578125 -14.863281 3.765625 -15.53125 4.140625 -16.125 C 4.523438 -16.726562 5.070312 -17.195312 5.78125 -17.53125 C 6.5 -17.875 7.320312 -18.046875 8.25 -18.046875 C 9.164062 -18.046875 9.960938 -17.867188 10.640625 -17.515625 C 11.316406 -17.160156 11.820312 -16.664062 12.15625 -16.03125 C 12.5 -15.394531 12.65625 -14.691406 12.625 -13.921875 L 10.3125 -13.921875 C 10.320312 -14.609375 10.125 -15.148438 9.71875 -15.546875 C 9.3125 -15.953125 8.789062 -16.15625 8.15625 -16.15625 C 7.476562 -16.15625 6.929688 -15.960938 6.515625 -15.578125 C 6.097656 -15.191406 5.890625 -14.707031 5.890625 -14.125 C 5.890625 -13.613281 6.03125 -13.117188 6.3125 -12.640625 C 6.59375 -12.171875 7.0625 -11.585938 7.71875 -10.890625 L 13 -5.59375 L 13.453125 -6.296875 L 15.1875 -9.1875 L 17.671875 -9.1875 L 15.59375 -5.59375 C 15.300781 -5.082031 14.960938 -4.546875 14.578125 -3.984375 L 18.5625 0 Z M 7.140625 -1.671875 C 8.046875 -1.671875 8.867188 -1.847656 9.609375 -2.203125 C 10.347656 -2.566406 11.046875 -3.117188 11.703125 -3.859375 L 6.5 -9.09375 C 4.332031 -8.257812 3.25 -6.945312 3.25 -5.15625 C 3.25 -4.15625 3.609375 -3.320312 4.328125 -2.65625 C 5.046875 -2 5.984375 -1.671875 7.140625 -1.671875 Z M 7.140625 -1.671875 "/></g></g></g><g fill="rgb(100%, 100%, 100%)" fill-opacity="1"><g transform="translate(181.596698, 289.167871)"><g/></g></g><g fill="rgb(100%, 100%, 100%)" fill-opacity="1"><g transform="translate(195.844934, 289.167871)"><g><path d="M 4.265625 -1.875 L 10.46875 -1.875 L 10.46875 0 L 1.953125 0 L 1.953125 -17.703125 L 4.265625 -17.703125 Z M 4.265625 -1.875 "/></g></g></g><g fill="rgb(100%, 100%, 100%)" fill-opacity="1"><g transform="translate(214.283288, 289.167871)"><g><path d="M 12.421875 -3.9375 L 4.703125 -3.9375 L 3.28125 0 L 0.84375 0 L 7.234375 -17.59375 L 9.90625 -17.59375 L 16.28125 0 L 13.84375 0 Z M 11.75 -5.8125 L 8.5625 -14.75 L 5.359375 -5.8125 Z M 11.75 -5.8125 "/></g></g></g><g fill="rgb(100%, 100%, 100%)" fill-opacity="1"><g transform="translate(238.867141, 289.167871)"><g><path d="M 7.5625 0.171875 C 6.394531 0.171875 5.347656 -0.03125 4.421875 -0.4375 C 3.503906 -0.851562 2.78125 -1.429688 2.25 -2.171875 C 1.726562 -2.910156 1.460938 -3.757812 1.453125 -4.71875 L 3.90625 -4.71875 C 3.988281 -3.894531 4.332031 -3.195312 4.9375 -2.625 C 5.539062 -2.0625 6.414062 -1.78125 7.5625 -1.78125 C 8.664062 -1.78125 9.535156 -2.050781 10.171875 -2.59375 C 10.804688 -3.144531 11.125 -3.851562 11.125 -4.71875 C 11.125 -5.394531 10.9375 -5.945312 10.5625 -6.375 C 10.1875 -6.800781 9.71875 -7.125 9.15625 -7.34375 C 8.601562 -7.5625 7.851562 -7.796875 6.90625 -8.046875 C 5.738281 -8.347656 4.800781 -8.648438 4.09375 -8.953125 C 3.394531 -9.265625 2.796875 -9.742188 2.296875 -10.390625 C 1.796875 -11.046875 1.546875 -11.925781 1.546875 -13.03125 C 1.546875 -13.988281 1.789062 -14.835938 2.28125 -15.578125 C 2.769531 -16.328125 3.457031 -16.90625 4.34375 -17.3125 C 5.238281 -17.71875 6.265625 -17.921875 7.421875 -17.921875 C 9.078125 -17.921875 10.429688 -17.503906 11.484375 -16.671875 C 12.546875 -15.847656 13.144531 -14.75 13.28125 -13.375 L 10.734375 -13.375 C 10.648438 -14.050781 10.296875 -14.648438 9.671875 -15.171875 C 9.046875 -15.691406 8.21875 -15.953125 7.1875 -15.953125 C 6.21875 -15.953125 5.425781 -15.703125 4.8125 -15.203125 C 4.207031 -14.703125 3.90625 -14.003906 3.90625 -13.109375 C 3.90625 -12.460938 4.085938 -11.9375 4.453125 -11.53125 C 4.816406 -11.125 5.265625 -10.8125 5.796875 -10.59375 C 6.335938 -10.382812 7.085938 -10.144531 8.046875 -9.875 C 9.210938 -9.550781 10.148438 -9.234375 10.859375 -8.921875 C 11.578125 -8.609375 12.1875 -8.125 12.6875 -7.46875 C 13.195312 -6.820312 13.453125 -5.941406 13.453125 -4.828125 C 13.453125 -3.960938 13.222656 -3.148438 12.765625 -2.390625 C 12.316406 -1.628906 11.640625 -1.007812 10.734375 -0.53125 C 9.835938 -0.0625 8.78125 0.171875 7.5625 0.171875 Z M 7.5625 0.171875 "/></g></g></g><g fill="rgb(100%, 100%, 100%)" fill-opacity="1"><g transform="translate(261.241655, 289.167871)"><g><path d="M 4.265625 -15.8125 L 4.265625 -9.90625 L 10.71875 -9.90625 L 10.71875 -8 L 4.265625 -8 L 4.265625 -1.90625 L 11.484375 -1.90625 L 11.484375 0 L 1.953125 0 L 1.953125 -17.71875 L 11.484375 -17.71875 L 11.484375 -15.8125 Z M 4.265625 -15.8125 "/></g></g></g><g fill="rgb(100%, 100%, 100%)" fill-opacity="1"><g transform="translate(281.736957, 289.167871)"><g><path d="M 11.28125 0 L 7.0625 -7.234375 L 4.265625 -7.234375 L 4.265625 0 L 1.953125 0 L 1.953125 -17.703125 L 7.671875 -17.703125 C 9.003906 -17.703125 10.128906 -17.472656 11.046875 -17.015625 C 11.972656 -16.554688 12.664062 -15.9375 13.125 -15.15625 C 13.582031 -14.375 13.8125 -13.488281 13.8125 -12.5 C 13.8125 -11.28125 13.457031 -10.203125 12.75 -9.265625 C 12.050781 -8.335938 11 -7.722656 9.59375 -7.421875 L 14.046875 0 Z M 4.265625 -9.09375 L 7.671875 -9.09375 C 8.921875 -9.09375 9.859375 -9.398438 10.484375 -10.015625 C 11.109375 -10.628906 11.421875 -11.457031 11.421875 -12.5 C 11.421875 -13.539062 11.113281 -14.347656 10.5 -14.921875 C 9.882812 -15.503906 8.941406 -15.796875 7.671875 -15.796875 L 4.265625 -15.796875 Z M 4.265625 -9.09375 "/></g></g></g><g fill="rgb(100%, 100%, 100%)" fill-opacity="1"><g transform="translate(3.579371, 239.478383)"><g><path d="M 35.640625 -39.3125 L 35.640625 0 L 29.1875 0 L 29.1875 -17.1875 L 10.6875 -17.1875 L 10.6875 0 L 4.234375 0 L 4.234375 -39.3125 L 10.6875 -39.3125 L 10.6875 -22.453125 L 29.1875 -22.453125 L 29.1875 -39.3125 Z M 35.640625 -39.3125 "/></g></g></g><g fill="rgb(100%, 100%, 100%)" fill-opacity="1"><g transform="translate(43.450458, 239.478383)"><g><path d="M 17.765625 0.515625 C 14.816406 0.515625 12.15625 -0.148438 9.78125 -1.484375 C 7.40625 -2.828125 5.539062 -4.710938 4.1875 -7.140625 C 2.832031 -9.578125 2.15625 -12.398438 2.15625 -15.609375 C 2.15625 -18.773438 2.847656 -21.582031 4.234375 -24.03125 C 5.628906 -26.488281 7.535156 -28.375 9.953125 -29.6875 C 12.367188 -31.007812 15.066406 -31.671875 18.046875 -31.671875 C 21.023438 -31.671875 23.71875 -31.007812 26.125 -29.6875 C 28.539062 -28.375 30.445312 -26.488281 31.84375 -24.03125 C 33.238281 -21.582031 33.9375 -18.773438 33.9375 -15.609375 C 33.9375 -12.441406 33.21875 -9.628906 31.78125 -7.171875 C 30.351562 -4.722656 28.40625 -2.828125 25.9375 -1.484375 C 23.46875 -0.148438 20.742188 0.515625 17.765625 0.515625 Z M 17.765625 -5.09375 C 19.421875 -5.09375 20.972656 -5.488281 22.421875 -6.28125 C 23.878906 -7.070312 25.054688 -8.257812 25.953125 -9.84375 C 26.859375 -11.425781 27.3125 -13.347656 27.3125 -15.609375 C 27.3125 -17.867188 26.878906 -19.78125 26.015625 -21.34375 C 25.148438 -22.914062 24 -24.097656 22.5625 -24.890625 C 21.132812 -25.679688 19.59375 -26.078125 17.9375 -26.078125 C 16.269531 -26.078125 14.726562 -25.679688 13.3125 -24.890625 C 11.90625 -24.097656 10.785156 -22.914062 9.953125 -21.34375 C 9.117188 -19.78125 8.703125 -17.867188 8.703125 -15.609375 C 8.703125 -12.253906 9.5625 -9.660156 11.28125 -7.828125 C 13 -6.003906 15.160156 -5.09375 17.765625 -5.09375 Z M 17.765625 -5.09375 "/></g></g></g><g fill="rgb(100%, 100%, 100%)" fill-opacity="1"><g transform="translate(79.532372, 239.478383)"><g><path d="M 10.6875 -41.859375 L 10.6875 0 L 4.234375 0 L 4.234375 -41.859375 Z M 10.6875 -41.859375 "/></g></g></g><g fill="rgb(100%, 100%, 100%)" fill-opacity="1"><g transform="translate(94.462825, 239.478383)"><g><path d="M 10.6875 -41.859375 L 10.6875 0 L 4.234375 0 L 4.234375 -41.859375 Z M 10.6875 -41.859375 "/></g></g></g><g fill="rgb(100%, 100%, 100%)" fill-opacity="1"><g transform="translate(109.393278, 239.478383)"><g><path d="M 32.296875 -31.171875 L 13.171875 14.65625 L 6.5 14.65625 L 12.84375 -0.515625 L 0.5625 -31.171875 L 7.75 -31.171875 L 16.515625 -7.40625 L 25.625 -31.171875 Z M 32.296875 -31.171875 "/></g></g></g><g fill="rgb(100%, 100%, 100%)" fill-opacity="1"><g transform="translate(142.308133, 239.478383)"><g/></g></g><g fill="rgb(100%, 100%, 100%)" fill-opacity="1"><g transform="translate(157.012359, 239.478383)"><g><path d="M 17.1875 0.390625 C 14.550781 0.390625 12.175781 -0.0664062 10.0625 -0.984375 C 7.957031 -1.910156 6.300781 -3.222656 5.09375 -4.921875 C 3.882812 -6.617188 3.28125 -8.597656 3.28125 -10.859375 L 10.1875 -10.859375 C 10.332031 -9.160156 11 -7.765625 12.1875 -6.671875 C 13.375 -5.578125 15.039062 -5.03125 17.1875 -5.03125 C 19.414062 -5.03125 21.148438 -5.566406 22.390625 -6.640625 C 23.640625 -7.722656 24.265625 -9.109375 24.265625 -10.796875 C 24.265625 -12.117188 23.878906 -13.191406 23.109375 -14.015625 C 22.335938 -14.847656 21.375 -15.488281 20.21875 -15.9375 C 19.070312 -16.394531 17.476562 -16.890625 15.4375 -17.421875 C 12.875 -18.097656 10.789062 -18.785156 9.1875 -19.484375 C 7.582031 -20.179688 6.210938 -21.265625 5.078125 -22.734375 C 3.953125 -24.203125 3.390625 -26.164062 3.390625 -28.625 C 3.390625 -30.882812 3.953125 -32.863281 5.078125 -34.5625 C 6.210938 -36.257812 7.796875 -37.554688 9.828125 -38.453125 C 11.867188 -39.359375 14.226562 -39.8125 16.90625 -39.8125 C 20.71875 -39.8125 23.835938 -38.859375 26.265625 -36.953125 C 28.703125 -35.054688 30.050781 -32.445312 30.3125 -29.125 L 23.1875 -29.125 C 23.070312 -30.5625 22.390625 -31.785156 21.140625 -32.796875 C 19.898438 -33.816406 18.265625 -34.328125 16.234375 -34.328125 C 14.390625 -34.328125 12.878906 -33.851562 11.703125 -32.90625 C 10.535156 -31.96875 9.953125 -30.613281 9.953125 -28.84375 C 9.953125 -27.632812 10.316406 -26.644531 11.046875 -25.875 C 11.785156 -25.101562 12.71875 -24.488281 13.84375 -24.03125 C 14.976562 -23.582031 16.53125 -23.09375 18.5 -22.5625 C 21.101562 -21.851562 23.222656 -21.140625 24.859375 -20.421875 C 26.492188 -19.703125 27.882812 -18.597656 29.03125 -17.109375 C 30.1875 -15.617188 30.765625 -13.628906 30.765625 -11.140625 C 30.765625 -9.140625 30.226562 -7.253906 29.15625 -5.484375 C 28.082031 -3.710938 26.515625 -2.289062 24.453125 -1.21875 C 22.398438 -0.144531 19.976562 0.390625 17.1875 0.390625 Z M 17.1875 0.390625 "/></g></g></g><g fill="rgb(100%, 100%, 100%)" fill-opacity="1"><g transform="translate(191.171415, 239.478383)"><g><path d="M 10.6875 -26.578125 C 11.78125 -28.015625 13.269531 -29.222656 15.15625 -30.203125 C 17.039062 -31.179688 19.171875 -31.671875 21.546875 -31.671875 C 24.265625 -31.671875 26.742188 -31 28.984375 -29.65625 C 31.234375 -28.320312 33 -26.445312 34.28125 -24.03125 C 35.5625 -21.625 36.203125 -18.851562 36.203125 -15.71875 C 36.203125 -12.59375 35.5625 -9.796875 34.28125 -7.328125 C 33 -4.859375 31.234375 -2.929688 28.984375 -1.546875 C 26.742188 -0.171875 24.265625 0.515625 21.546875 0.515625 C 19.171875 0.515625 17.054688 0.0351562 15.203125 -0.921875 C 13.359375 -1.890625 11.851562 -3.09375 10.6875 -4.53125 L 10.6875 14.8125 L 4.234375 14.8125 L 4.234375 -31.171875 L 10.6875 -31.171875 Z M 29.640625 -15.71875 C 29.640625 -17.875 29.195312 -19.734375 28.3125 -21.296875 C 27.425781 -22.859375 26.253906 -24.046875 24.796875 -24.859375 C 23.347656 -25.671875 21.796875 -26.078125 20.140625 -26.078125 C 18.515625 -26.078125 16.972656 -25.660156 15.515625 -24.828125 C 14.066406 -24.003906 12.898438 -22.796875 12.015625 -21.203125 C 11.128906 -19.617188 10.6875 -17.753906 10.6875 -15.609375 C 10.6875 -13.460938 11.128906 -11.585938 12.015625 -9.984375 C 12.898438 -8.378906 14.066406 -7.160156 15.515625 -6.328125 C 16.972656 -5.503906 18.515625 -5.09375 20.140625 -5.09375 C 21.796875 -5.09375 23.347656 -5.515625 24.796875 -6.359375 C 26.253906 -7.210938 27.425781 -8.445312 28.3125 -10.0625 C 29.195312 -11.6875 29.640625 -13.570312 29.640625 -15.71875 Z M 29.640625 -15.71875 "/></g></g></g><g fill="rgb(100%, 100%, 100%)" fill-opacity="1"><g transform="translate(229.515528, 239.478383)"><g><path d="M 10.6875 -26.640625 C 11.632812 -28.222656 12.890625 -29.457031 14.453125 -30.34375 C 16.015625 -31.226562 17.867188 -31.671875 20.015625 -31.671875 L 20.015625 -25 L 18.375 -25 C 15.851562 -25 13.941406 -24.359375 12.640625 -23.078125 C 11.335938 -21.796875 10.6875 -19.570312 10.6875 -16.40625 L 10.6875 0 L 4.234375 0 L 4.234375 -31.171875 L 10.6875 -31.171875 Z M 10.6875 -26.640625 "/></g></g></g><g fill="rgb(100%, 100%, 100%)" fill-opacity="1"><g transform="translate(251.232545, 239.478383)"><g><path d="M 7.515625 -35.296875 C 6.347656 -35.296875 5.367188 -35.691406 4.578125 -36.484375 C 3.785156 -37.273438 3.390625 -38.253906 3.390625 -39.421875 C 3.390625 -40.585938 3.785156 -41.566406 4.578125 -42.359375 C 5.367188 -43.148438 6.347656 -43.546875 7.515625 -43.546875 C 8.648438 -43.546875 9.613281 -43.148438 10.40625 -42.359375 C 11.195312 -41.566406 11.59375 -40.585938 11.59375 -39.421875 C 11.59375 -38.253906 11.195312 -37.273438 10.40625 -36.484375 C 9.613281 -35.691406 8.648438 -35.296875 7.515625 -35.296875 Z M 10.6875 -31.171875 L 10.6875 0 L 4.234375 0 L 4.234375 -31.171875 Z M 10.6875 -31.171875 "/></g></g></g><g fill="rgb(100%, 100%, 100%)" fill-opacity="1"><g transform="translate(266.162986, 239.478383)"><g><path d="M 19.96875 -31.671875 C 22.414062 -31.671875 24.609375 -31.160156 26.546875 -30.140625 C 28.492188 -29.128906 30.015625 -27.625 31.109375 -25.625 C 32.203125 -23.625 32.75 -21.207031 32.75 -18.375 L 32.75 0 L 26.359375 0 L 26.359375 -17.421875 C 26.359375 -20.210938 25.660156 -22.351562 24.265625 -23.84375 C 22.867188 -25.332031 20.960938 -26.078125 18.546875 -26.078125 C 16.140625 -26.078125 14.226562 -25.332031 12.8125 -23.84375 C 11.394531 -22.351562 10.6875 -20.210938 10.6875 -17.421875 L 10.6875 0 L 4.234375 0 L 4.234375 -31.171875 L 10.6875 -31.171875 L 10.6875 -27.609375 C 11.75 -28.890625 13.097656 -29.882812 14.734375 -30.59375 C 16.367188 -31.3125 18.113281 -31.671875 19.96875 -31.671875 Z M 19.96875 -31.671875 "/></g></g></g><g fill="rgb(100%, 100%, 100%)" fill-opacity="1"><g transform="translate(302.867002, 239.478383)"><g><path d="M 16.796875 -31.671875 C 19.210938 -31.671875 21.351562 -31.191406 23.21875 -30.234375 C 25.082031 -29.273438 26.546875 -28.078125 27.609375 -26.640625 L 27.609375 -31.171875 L 34.109375 -31.171875 L 34.109375 0.515625 C 34.109375 3.378906 33.503906 5.929688 32.296875 8.171875 C 31.085938 10.410156 29.34375 12.171875 27.0625 13.453125 C 24.78125 14.742188 22.054688 15.390625 18.890625 15.390625 C 14.671875 15.390625 11.164062 14.398438 8.375 12.421875 C 5.582031 10.441406 4 7.753906 3.625 4.359375 L 10.015625 4.359375 C 10.503906 5.972656 11.546875 7.28125 13.140625 8.28125 C 14.742188 9.28125 16.660156 9.78125 18.890625 9.78125 C 21.492188 9.78125 23.597656 8.988281 25.203125 7.40625 C 26.804688 5.820312 27.609375 3.523438 27.609375 0.515625 L 27.609375 -4.6875 C 26.515625 -3.21875 25.03125 -1.984375 23.15625 -0.984375 C 21.289062 0.015625 19.171875 0.515625 16.796875 0.515625 C 14.078125 0.515625 11.597656 -0.171875 9.359375 -1.546875 C 7.117188 -2.929688 5.347656 -4.859375 4.046875 -7.328125 C 2.742188 -9.796875 2.09375 -12.59375 2.09375 -15.71875 C 2.09375 -18.851562 2.742188 -21.625 4.046875 -24.03125 C 5.347656 -26.445312 7.117188 -28.320312 9.359375 -29.65625 C 11.597656 -31 14.078125 -31.671875 16.796875 -31.671875 Z M 27.609375 -15.609375 C 27.609375 -17.753906 27.160156 -19.617188 26.265625 -21.203125 C 25.378906 -22.796875 24.21875 -24.003906 22.78125 -24.828125 C 21.351562 -25.660156 19.8125 -26.078125 18.15625 -26.078125 C 16.5 -26.078125 14.953125 -25.671875 13.515625 -24.859375 C 12.085938 -24.046875 10.925781 -22.859375 10.03125 -21.296875 C 9.144531 -19.734375 8.703125 -17.875 8.703125 -15.71875 C 8.703125 -13.570312 9.144531 -11.6875 10.03125 -10.0625 C 10.925781 -8.445312 12.097656 -7.210938 13.546875 -6.359375 C 14.992188 -5.515625 16.53125 -5.09375 18.15625 -5.09375 C 19.8125 -5.09375 21.351562 -5.503906 22.78125 -6.328125 C 24.21875 -7.160156 25.378906 -8.378906 26.265625 -9.984375 C 27.160156 -11.585938 27.609375 -13.460938 27.609375 -15.609375 Z M 27.609375 -15.609375 "/></g></g></g><g fill="rgb(100%, 100%, 100%)" fill-opacity="1"><g transform="translate(341.211092, 239.478383)"><g><path d="M 15.546875 0.515625 C 13.097656 0.515625 10.898438 0.0703125 8.953125 -0.8125 C 7.015625 -1.707031 5.476562 -2.914062 4.34375 -4.4375 C 3.21875 -5.96875 2.617188 -7.675781 2.546875 -9.5625 L 9.21875 -9.5625 C 9.332031 -8.238281 9.960938 -7.132812 11.109375 -6.25 C 12.265625 -5.363281 13.707031 -4.921875 15.4375 -4.921875 C 17.25 -4.921875 18.65625 -5.269531 19.65625 -5.96875 C 20.65625 -6.664062 21.15625 -7.5625 21.15625 -8.65625 C 21.15625 -9.820312 20.597656 -10.6875 19.484375 -11.25 C 18.367188 -11.820312 16.609375 -12.445312 14.203125 -13.125 C 11.859375 -13.757812 9.953125 -14.378906 8.484375 -14.984375 C 7.015625 -15.585938 5.738281 -16.507812 4.65625 -17.75 C 3.582031 -19 3.046875 -20.644531 3.046875 -22.6875 C 3.046875 -24.34375 3.535156 -25.859375 4.515625 -27.234375 C 5.503906 -28.609375 6.910156 -29.691406 8.734375 -30.484375 C 10.566406 -31.273438 12.671875 -31.671875 15.046875 -31.671875 C 18.585938 -31.671875 21.441406 -30.773438 23.609375 -28.984375 C 25.773438 -27.191406 26.9375 -24.75 27.09375 -21.65625 L 20.640625 -21.65625 C 20.523438 -23.050781 19.957031 -24.164062 18.9375 -25 C 17.925781 -25.832031 16.550781 -26.25 14.8125 -26.25 C 13.125 -26.25 11.828125 -25.925781 10.921875 -25.28125 C 10.015625 -24.644531 9.5625 -23.796875 9.5625 -22.734375 C 9.5625 -21.910156 9.863281 -21.210938 10.46875 -20.640625 C 11.070312 -20.078125 11.804688 -19.632812 12.671875 -19.3125 C 13.535156 -18.988281 14.816406 -18.582031 16.515625 -18.09375 C 18.773438 -17.488281 20.628906 -16.875 22.078125 -16.25 C 23.535156 -15.632812 24.789062 -14.722656 25.84375 -13.515625 C 26.90625 -12.304688 27.453125 -10.703125 27.484375 -8.703125 C 27.484375 -6.929688 26.992188 -5.347656 26.015625 -3.953125 C 25.035156 -2.554688 23.648438 -1.460938 21.859375 -0.671875 C 20.066406 0.117188 17.960938 0.515625 15.546875 0.515625 Z M 15.546875 0.515625 "/></g></g></g></svg>