<?xml version="1.0" encoding="utf-8"?>
<!-- Generator: Adobe Illustrator 25.0.1, SVG Export Plug-In . SVG Version: 6.00 Build 0)  -->
<svg version="1.1" id="Layer_1" xmlns="http://www.w3.org/2000/svg" xmlns:xlink="http://www.w3.org/1999/xlink" x="0px" y="0px"
	 viewBox="0 0 1024 1024" style="enable-background:new 0 0 1024 1024;" xml:space="preserve">
<style type="text/css">
	.st0{fill:#131313;}
	.st1{fill:#0F0F0F;}
	.st2{fill:#121212;}
	.st3{fill:#141414;}
	.st4{fill:#0E0E0E;}
	.st5{fill:#101010;}
	.st6{fill:#111111;}
	.st7{fill:#0D0D0D;}
	.st8{fill:#080808;}
	.st9{fill:#0A0A0A;}
	.st10{fill:#090909;}
	.st11{fill:#2B2B2B;}
	.st12{fill:#2D2D2D;}
	.st13{fill:#2E2E2E;}
	.st14{fill:#202020;}
	.st15{fill:#2C2C2C;}
	.st16{fill:#1C1C1C;}
	.st17{fill:#191919;}
	.st18{fill:#2A2A2A;}
	.st19{fill:#171717;}
	.st20{fill:#181818;}
	.st21{fill:#161616;}
	.st22{fill:#1F1F1F;}
	.st23{fill:#282828;}
	.st24{fill:#313131;}
	.st25{fill:#3D3D3D;}
	.st26{fill:#010101;}
	.st27{fill:#020202;}
	.st28{fill:#323232;}
	.st29{fill:#232323;}
	.st30{fill:#222222;}
</style>
<g>
	<path class="st0" d="M361.33,618.6c-1.37-0.07-2.4-1.12-2.43-2.56c-0.03-1.61,1.03-2.78,2.82-2.75c1.7,0.03,2.5,1.25,2.47,2.71
		C364.16,617.47,363.32,618.61,361.33,618.6z"/>
	<path class="st1" d="M348.7,627.84c-1.58-0.15-2.58-1.15-2.62-2.65c-0.04-1.57,1.1-2.61,2.64-2.6c1.52,0,2.69,1.03,2.64,2.6
		C351.32,626.67,350.36,627.71,348.7,627.84z"/>
	<path class="st2" d="M374.44,604.92c1.65,0.05,2.65,0.82,2.66,2.51c0.01,1.71-1.13,2.55-2.65,2.58c-1.4,0.03-2.45-0.77-2.47-2.34
		C371.96,606.05,372.81,605.11,374.44,604.92z"/>
	<path class="st3" d="M422.63,575.62c-0.12,1.6-1.04,2.44-2.44,2.54c-1.65,0.12-2.61-0.88-2.63-2.49c-0.02-1.45,0.84-2.44,2.33-2.5
		C421.53,573.11,422.3,574.22,422.63,575.62z"/>
	<path class="st2" d="M795.53,319.55c-1.27-0.3-2.33-0.92-2.36-2.47c-0.04-1.65,0.89-2.64,2.48-2.7c1.48-0.05,2.42,0.92,2.46,2.38
		C798.16,318.36,797.15,319.26,795.53,319.55z"/>
	<path class="st4" d="M781.76,328.38c-0.07,1.33-0.84,2.24-2.33,2.27c-1.62,0.03-2.61-0.97-2.64-2.5c-0.02-1.39,0.85-2.42,2.36-2.41
		C780.7,325.74,781.72,326.53,781.76,328.38z"/>
	<path class="st5" d="M762.79,336.82c1.6,0.15,2.59,0.94,2.74,2.35c0.17,1.67-1.01,2.58-2.46,2.75c-1.72,0.19-2.44-1.09-2.51-2.59
		C760.48,337.79,761.65,337.2,762.79,336.82z"/>
	<path class="st1" d="M387.13,600.7c-1.39-0.18-2.39-0.96-2.28-2.64c0.09-1.47,0.99-2.34,2.47-2.3c1.63,0.04,2.56,1.1,2.5,2.65
		C389.76,599.8,388.85,600.7,387.13,600.7z"/>
	<path class="st6" d="M583.41,465.72c-1.57-0.2-2.65-0.97-2.62-2.62c0.03-1.47,0.96-2.37,2.43-2.36c1.59,0.01,2.59,0.92,2.56,2.55
		C585.74,464.76,584.89,465.61,583.41,465.72z"/>
	<path class="st7" d="M534.42,494.43c1.49,0.19,2.35,1.09,2.36,2.51c0.01,1.59-0.98,2.59-2.56,2.57c-1.47-0.01-2.34-1.05-2.39-2.45
		C531.77,495.4,532.93,494.69,534.42,494.43z"/>
	<path class="st1" d="M814.48,305.6c-0.18,1.38-0.74,2.48-2.28,2.53c-1.6,0.05-2.63-0.84-2.7-2.43c-0.07-1.65,1-2.56,2.58-2.49
		C813.48,303.26,814.41,304.07,814.48,305.6z"/>
	<path class="st2" d="M618.56,440.8c-0.3,1.6-1.17,2.51-2.83,2.39c-1.57-0.11-2.22-1.23-2.24-2.58c-0.03-1.49,0.94-2.37,2.42-2.34
		C617.49,438.3,618.41,439.22,618.56,440.8z"/>
	<path class="st3" d="M651.13,417.94c-0.06,1.68-0.85,2.72-2.48,2.72c-1.39-0.01-2.51-0.75-2.48-2.29c0.02-1.31,0.52-2.57,2.13-2.65
		C649.86,415.63,650.93,416.33,651.13,417.94z"/>
	<path class="st8" d="M436.46,567.02c-1.67-0.26-2.7-0.99-2.57-2.71c0.11-1.51,1.09-2.34,2.48-2.36c1.68-0.03,2.42,1.11,2.38,2.71
		C438.71,566.18,437.77,566.87,436.46,567.02z"/>
	<path class="st9" d="M602.11,451.72c-0.16,1.75-1.01,2.88-2.57,2.82c-1.31-0.06-2.34-0.96-2.32-2.5c0.01-1.67,1.03-2.56,2.56-2.57
		C601.22,449.45,602.02,450.43,602.11,451.72z"/>
	<path class="st10" d="M466.54,541.92c0.11-1.69,1.2-2.48,2.7-2.43c1.42,0.05,2.3,1.06,2.27,2.5c-0.04,1.43-0.97,2.42-2.35,2.47
		C467.6,544.52,466.69,543.52,466.54,541.92z"/>
	<path class="st8" d="M634.81,429.39c-0.33,1.76-1.24,2.72-2.83,2.55c-1.4-0.15-2.27-1.11-2.16-2.6c0.12-1.66,1.18-2.39,2.77-2.32
		C634.21,427.09,634.53,428.32,634.81,429.39z"/>
	<path class="st8" d="M746.8,353.14c-1.51-0.14-2.61-0.82-2.59-2.32c0.02-1.5,0.76-2.69,2.54-2.56c1.45,0.11,2.45,0.86,2.35,2.42
		C749.03,352.08,748.28,353.05,746.8,353.14z"/>
	<path class="st11" d="M796.69,393.06c-0.28,0.64-0.41,1.53-1.37,1.39c-0.72-0.11-1.48-0.56-1.45-1.37
		c0.03-0.81,0.45-1.68,1.51-1.52C796.14,391.68,796.64,392.24,796.69,393.06z"/>
	<path class="st12" d="M780.91,379.86c0.67,0.29,1.45,0.61,1.37,1.45c-0.08,0.9-0.69,1.53-1.7,1.34c-0.61-0.11-1.33-0.41-1.23-1.16
		C779.46,380.69,779.87,379.93,780.91,379.86z"/>
	<path class="st13" d="M631.78,361.09c-0.28,0.8-0.61,1.51-1.49,1.42c-0.92-0.1-1.53-0.73-1.4-1.67c0.11-0.77,0.8-1.24,1.57-1.16
		C631.24,359.77,631.65,360.39,631.78,361.09z"/>
	<path class="st12" d="M793.59,400.8c-0.16,0.85-0.59,1.42-1.48,1.36c-0.83-0.05-1.4-0.54-1.38-1.42c0.02-0.9,0.64-1.28,1.47-1.29
		C793.1,399.44,793.47,400.01,793.59,400.8z"/>
	<path class="st14" d="M788.31,384.37c0.81,0.08,1.43,0.52,1.55,1.31c0.13,0.81-0.44,1.47-1.17,1.62c-0.86,0.19-1.35-0.46-1.43-1.27
		C787.17,385.25,787.38,384.56,788.31,384.37z"/>
	<path class="st15" d="M771.17,407.32c-0.94-0.06-1.28-0.73-1.35-1.47c-0.09-0.84,0.49-1.44,1.27-1.5c0.87-0.07,1.23,0.66,1.32,1.44
		C772.5,406.69,771.87,407.05,771.17,407.32z"/>
	<path class="st16" d="M751.52,368.9c0.91-0.03,1.4,0.41,1.4,1.32c0,0.9-0.49,1.39-1.39,1.35c-0.72-0.03-1.18-0.45-1.24-1.19
		C750.23,369.51,750.56,368.94,751.52,368.9z"/>
	<path class="st15" d="M626.27,362.13c0.86,0.06,1.5,0.58,1.57,1.32c0.07,0.73-0.45,1.5-1.3,1.51c-0.76,0.01-1.5-0.43-1.6-1.27
		C624.83,362.81,625.57,362.44,626.27,362.13z"/>
	<path class="st17" d="M752.88,404.87c0.81,0.22,1.38,0.69,1.27,1.56c-0.12,0.95-0.93,1.09-1.69,1.05c-0.74-0.04-1.1-0.54-1.03-1.3
		C751.51,405.3,751.98,404.85,752.88,404.87z"/>
	<path class="st18" d="M760.04,374.38c-0.9-0.11-1.3-0.7-1.32-1.5c-0.02-0.9,0.68-1.28,1.44-1.36c1-0.11,1.21,0.68,1.24,1.44
		C761.42,373.85,760.86,374.27,760.04,374.38z"/>
	<path class="st19" d="M636.38,358.95c-0.01-0.86,0.41-1.43,1.27-1.5c0.87-0.08,1.41,0.44,1.47,1.29c0.05,0.72-0.39,1.22-1.11,1.29
		C637.23,360.1,636.51,359.93,636.38,358.95z"/>
	<path class="st20" d="M648.01,357.38c-0.01,0.81-0.41,1.37-1.32,1.36c-0.91-0.01-1.32-0.63-1.34-1.45
		c-0.02-0.75,0.52-1.12,1.2-1.22C647.49,355.94,647.92,356.43,648.01,357.38z"/>
	<path class="st21" d="M781.61,404.66c-0.08,0.86-0.58,1.31-1.43,1.36c-0.98,0.06-1.28-0.57-1.27-1.4c0.01-0.71,0.32-1.19,1.14-1.19
		C780.91,403.43,781.45,403.77,781.61,404.66z"/>
	<path class="st19" d="M763.23,406.25c-0.04,0.93-0.56,1.36-1.41,1.3c-0.67-0.05-1.22-0.45-1.28-1.16
		c-0.07-0.87,0.49-1.41,1.29-1.48C762.69,404.83,763.08,405.47,763.23,406.25z"/>
	<path class="st22" d="M643.07,384.9c-0.79-0.09-1.1-0.63-1.19-1.3c-0.12-0.97,0.52-1.37,1.33-1.38c0.71-0.01,1.21,0.55,1.24,1.21
		C644.5,384.3,643.79,384.66,643.07,384.9z"/>
	<path class="st23" d="M639.76,381.19c0.02,0.7-0.32,1.16-1.04,1.26c-0.9,0.13-1.37-0.4-1.45-1.2c-0.07-0.69,0.37-1.21,1.04-1.32
		C639.2,379.78,639.62,380.34,639.76,381.19z"/>
	<path class="st6" d="M772.16,376.87c-0.11,1.03-0.83,1.2-1.59,1.16c-0.68-0.04-1.2-0.4-1.12-1.19c0.08-0.83,0.56-1.43,1.39-1.38
		C771.62,375.51,772.14,376.05,772.16,376.87z"/>
	<path class="st19" d="M655.31,358.23c-1.04-0.15-1.56-0.68-1.5-1.5c0.07-0.83,0.69-1.25,1.54-1.23c0.82,0.03,1.03,0.65,1.09,1.29
		C656.51,357.69,655.92,358.05,655.31,358.23z"/>
	<path class="st24" d="M651.39,386.49c-0.1,0.83-0.62,1.4-1.38,1.4c-0.84,0.01-1.22-0.72-1.2-1.51c0.02-0.7,0.56-1.16,1.19-1.23
		C650.89,385.07,651.24,385.73,651.39,386.49z"/>
	<path class="st14" d="M635.04,378.44c0.01,0.72-0.31,1.28-1.03,1.35c-0.86,0.08-1.42-0.44-1.41-1.3c0-0.69,0.51-1.15,1.2-1.2
		C634.56,377.25,634.92,377.74,635.04,378.44z"/>
	<path class="st25" d="M630.14,377.17c-0.73-0.02-1.18-0.43-1.31-1.09c-0.14-0.72,0.28-1.24,0.95-1.35
		c0.83-0.14,1.43,0.28,1.48,1.16C631.3,376.62,630.76,376.95,630.14,377.17z"/>
	<path d="M863.38,499.71c-0.04-2.26-0.55-4.44-1.35-6.54c-1.67-4.35-5.26-6.73-10.19-6.8c-4.75-0.07-6.57,1.23-8.66,6.31
		c-8.18,19.95-16.32,39.91-24.51,59.85c-5.97,14.55-11.51,29.3-18.13,43.55c-7.29,15.69-14.45,31.46-23.38,46.37
		c-7.94,13.27-16.05,26.33-26.01,38.22c-9.46,11.3-19.39,22.12-30.38,31.94c-34.16,30.54-73.42,51.58-117.88,62.71
		c-39.25,9.82-78.79,11.05-118.59,3.57c-36.37-6.84-69.99-20.44-100.95-40.7c-25.39-16.61-47.23-37.06-66.18-60.67
		c-2.71-3.38-2.73-3.34,0.42-6.49c7.49-7.48,14.67-15.22,19.14-24.97c5.88-12.82,0.35-21.21-13.82-21.21
		c-9.87,0-19.12,2.95-28.3,6.1c-6,2.07-5.93,2.15-8.65-3.59c-11.18-23.62-19.25-48.21-23.62-74.01c-4.83-28.51-5.4-57.07-1.31-85.68
		c3.77-26.41,11.17-51.79,22.27-76.08c17.76-38.85,43.13-71.86,76.03-99.04c33.25-27.46,71.11-45.8,112.93-56.04
		c13.31-3.26,26.88-5.21,40.36-7.63c10.89-1.95,21.83-3.97,32.83-4.96c17.61-1.58,35.32-2.03,52.94-3.5
		c18.33-1.53,36.63-1.39,54.95-0.45c5.3,0.27,10.62,0.48,15.86,1.64c5.38,1.19,10.8,2.33,16.36,2.25c3.68-0.05,4.94-1.25,5.42-4.79
		c0.83-6.01-1.53-10.38-6.71-13.31c-14.02-7.93-28.53-14.86-43.52-20.73c-41.34-16.17-84.21-24.4-129.49-24.42
		c-43.87-0.11-87.06,8.19-128.63,24.64c-39.32,15.56-74.76,37.5-106.14,65.92c-39.33,35.62-69.16,77.96-89.42,127.01
		c-13.65,33.04-21.96,67.38-25.12,103c-2.58,29.15-1.61,58.18,3.11,87.04c6.66,40.64,19.99,79.01,40.14,114.96
		c1.05,1.88,0.8,2.9-0.69,4.28c-6.02,5.6-11.49,11.72-16.15,18.52c-3.09,4.51-5.79,9.21-6.62,14.74
		c-0.92,6.12,1.67,10.63,7.42,12.95c2.83,1.14,5.78,1.37,8.78,1.37c11.32,0.01,21.82-3.53,32.09-7.75c2.77-1.14,3.99-0.59,5.62,1.53
		c15.33,19.94,32.85,37.78,52.27,53.74c57.02,46.85,122.4,73.37,195.86,79.58c55.56,4.69,109.24-3.89,160.87-24.89
		c36.04-14.66,68.82-34.74,98.06-60.43c52.82-46.39,88.75-103.47,107.81-171.16C860.31,571,863.97,535.62,863.38,499.71z
		 M196.96,601.58c-9.57-33.68-13.63-68.05-12.21-103.04c1.67-41.01,10.72-80.34,27.23-117.93c23.36-53.17,58.38-97.14,104.94-131.75
		c38.26-28.44,80.84-47.52,127.55-57.33c33.02-6.93,66.3-8.79,99.86-5.5c22.12,2.17,43.8,6.61,65.02,13.23
		c0.69,0.22,1.35,0.55,2.32,0.95c-22.44-0.96-44.62-2.53-66.72-1.12c-23.41,1.49-46.49,5.66-69.16,12
		c-14.15,3.96-28.47,7.23-42.32,12.23c-30.21,10.92-58.01,26.19-83.29,45.99c-40.33,31.58-70.78,70.9-91.07,117.91
		c-20.01,46.38-27.84,94.84-23.55,145.22c3.16,37.15,12.88,72.52,29.41,105.91c4.84,9.79,9.66,19.67,15.9,28.71
		c1.18,1.71,1.24,2.71-0.67,4.03c-11.84,8.17-23.87,16.04-36.39,23.16c-2.22,1.26-3.25,1.11-4.68-1.05
		C220.38,664.82,206.26,634.3,196.96,601.58z M219.77,725.01c-7.23,2.22-14.52,4.34-22.17,4.3c-9.94-0.06-12.72-4.48-8.48-13.46
		c4.69-9.93,12.33-17.51,20.21-25.24c2.14,3.46,4.12,6.72,6.19,9.93c0.58,0.9,0.45,1.53-0.2,2.25c-0.57,0.63-1.1,1.3-1.59,2
		c-1.23,1.75-1.97,3.68-0.77,5.66c1.3,2.14,3.49,2.33,5.68,1.81c7.01-1.66,13.44-4.84,19.7-8.23
		c23.17-12.58,45.37-26.63,65.44-43.83c2.51-2.15,4.89-4.45,6.86-7.13c1.34-1.83,2.73-3.73,1.17-6.08
		c-1.49-2.25-3.78-2.08-6.05-1.67c-2.31,0.42-4.62,0.91-6.72,1.98c-1.29,0.66-2.07,0.54-2.77-0.84c-1.1-2.18-2.3-4.33-3.63-6.38
		c-0.98-1.5-0.69-2.17,0.94-2.76c8.53-3.1,17.13-5.9,26.23-6.74c3.1-0.29,6.19-0.22,9.17,0.81c3.57,1.24,4.87,3.35,4.29,7.12
		c-0.72,4.66-3.12,8.58-5.7,12.38c-7.02,10.34-16.45,18.33-25.77,26.46c-15.58,13.59-32.69,24.93-51.1,34.2
		C240.67,716.59,230.58,721.69,219.77,725.01z M830.72,587c-16.22,67.13-49.93,123.89-101.45,169.89
		c-36.33,32.44-78.05,55.46-124.76,69.18c-45,13.22-90.83,16.73-137.33,10.21c-60.31-8.45-114.14-31.87-161.56-70.07
		c-14.32-11.53-27.52-24.24-39.58-38.09c-3.21-3.68-6.29-7.48-9.66-11.02c-0.97-1.01-1.16-1.46,0.31-2.25
		c13.35-7.16,26.1-15.29,38.16-24.47c1.17-0.89,1.56-0.68,2.43,0.4c9.59,11.98,19.7,23.51,30.91,34.03
		c43.14,40.51,93.71,66.47,151.89,77.52c35.04,6.66,70.17,7.12,105.28,1.05c59.31-10.25,111.07-35.87,155.41-76.67
		c17.82-16.4,30.71-36.29,42.68-56.97c5.06-8.74,10.61-17.25,14.96-26.34c5.43-11.35,12.61-21.74,17.66-33.24
		c3.89-8.86,7.5-17.84,10.98-26.87c2.25-5.85,5.83-11.12,7.55-17.28C834.06,573.15,832.39,580.09,830.72,587z"/>
	<path d="M614.93,519.62c-14.67-13.64-29.44-27.18-44.16-40.78c-1.1-1.01-2.35-1.76-1.5-3.86c0.8-1.99-1.08-3.63-3.1-2.7
		c-1.75,0.8-2.53-0.01-3.56-0.97c-4.13-3.85-8.28-7.68-12.44-11.51c-11.52-10.62-22.98-21.3-34.59-31.82
		c-5.04-4.57-10.15-4.65-17.12-0.85c-4.77,2.6-7.03,7.32-6.08,13.29c2.9,18.2,5.89,36.39,8.83,54.59
		c1.12,6.91,2.19,13.82,3.29,20.75c-0.49,0.05-0.71,0.14-0.88,0.08c-23.27-7.32-46.54-14.65-69.79-22
		c-2.57-0.81-5.12-1.48-7.84-1.05c-9.89,1.54-14.78,14.03-8.81,22.78c20.67,30.27,41.39,60.51,62.1,90.76
		c4.64,6.77,9.2,13.6,13.96,20.28c4.17,5.85,10.89,7.13,16.58,3.42c5.49-3.59,6.79-10.51,3.11-16.66c-0.44-0.73-0.9-1.45-1.38-2.15
		c-12.46-18.2-24.93-36.4-37.39-54.6c-7.1-10.37-14.2-20.74-21.72-31.73c7.34,2.29,14.01,4.35,20.67,6.45
		c14.32,4.52,28.62,9.1,42.95,13.59c4.76,1.49,9.12,0.6,12.66-3.02c3.45-3.53,4.17-7.76,2.68-12.43c-0.45-1.41-0.85-2.86-1.09-4.32
		c-1.26-7.57-2.45-15.14-3.68-22.71c-1.97-12.17-3.94-24.34-5.91-36.57c1.23,0.01,1.7,0.81,2.3,1.37
		c16.39,15.08,32.77,30.17,49.15,45.27c9.01,8.3,17.97,16.67,27.06,24.9c5.01,4.53,11.26,4.66,15.98,0.67
		C620.97,533.2,620.94,525.2,614.93,519.62z M609.56,529.29c-1.39,1.62-2.8,0.54-4.12-0.58c-31.02-26.47-62.06-52.93-93.1-79.39
		c-0.62-0.53-1.26-1.04-2.47-2.05c0.87,6.99,1.66,13.26,2.44,19.54c2.59,20.82,5.19,41.65,7.78,62.47c0.54,4.3-0.68,5.51-4.98,4.49
		c-14-3.31-27.97-6.72-41.95-10.09c-12.22-2.95-24.44-5.92-36.66-8.86c-0.89-0.21-1.76-0.76-2.96-0.26
		c5.97,8.76,11.89,17.47,17.83,26.17c17.6,25.79,35.2,51.57,52.8,77.35c0.93,1.37,1.98,2.93,0.27,4.21
		c-1.98,1.49-3.07-0.28-4.04-1.7c-19.77-28.95-39.53-57.9-59.29-86.85c-4.63-6.77-9.27-13.54-13.9-20.31
		c-0.89-1.31-2.21-2.63-0.92-4.28c1.12-1.43,2.69-0.82,4.15-0.47c27.74,6.73,55.48,13.45,83.22,20.17c0.5,0.12,1.02,0.15,1.85,0.26
		c-0.76-6.39-1.46-12.61-2.23-18.81c-2.29-18.28-4.6-36.56-6.9-54.84c-0.48-3.8-1-7.6-1.41-11.41c-0.16-1.43-0.61-3.14,1.18-3.94
		c1.63-0.73,2.82,0.36,3.97,1.35c14.98,12.81,29.96,25.62,44.97,38.41c17.43,14.86,34.88,29.69,52.32,44.54
		c0.32,0.28,0.65,0.55,0.96,0.84C609.54,526.36,610.96,527.65,609.56,529.29z"/>
	<path class="st26" d="M749.87,385.45c0.14-22.6-13.75-40.94-34.7-46.79c-16.35-4.57-39.7-0.21-52.57,21.3
		c-13.13,21.94-6.27,50.02,15.51,63.9c21.12,13.47,49.76,7.34,63.87-13.64c0.88-1.31,1.26-3.19,3.52-3.07
		c0.53,0.03,1.25-0.94,0.79-1.44c-1.53-1.65-0.15-2.94,0.35-4.31C748.67,395.95,750.07,390.4,749.87,385.45z M742.13,378.67
		c-2.86,2.54-5.55,5.27-8.35,7.87c-1.45,1.34-3.09,2.22-5.57,1.42c4.81-5.03,9.47-9.9,14.36-15.02
		C743.81,375.21,744.1,376.91,742.13,378.67z M741.17,368.2c0.73,0.84,1.66,2.22,0.2,3.65c-3.02,2.97-5.87,6.12-8.83,9.16
		c-1.68,1.73-3.43,3.38-5.61,5.52c0.25-4.86,3.3-7.56,5.68-10.55c1.91-2.4,4.15-4.54,6.34-6.7
		C739.54,368.71,740.05,366.91,741.17,368.2z M666.52,372.35c4.09-2.49,8.24-4.81,12.88-6.13c1.37-0.39,2.69-0.61,4.39,0.46
		c-7.47,5.14-14.69,10.12-22.01,15.17C661.17,377.33,663.03,374.47,666.52,372.35z M661.44,385.15c-0.08-1.06,0.59-1.49,1.31-1.98
		c7.18-4.95,14.36-9.89,21.5-14.88c1.06-0.74,1.88-0.84,2.77,0.14c1.01,1.1,0.64,2.2-0.09,3.19c-2.1,2.86-4.8,5.11-7.66,7.16
		c-2.7,1.93-5.46,3.74-6.28,7.29c-0.1,0.43-0.6,0.85-1.02,1.12c-2.99,2-6.01,3.96-9.18,6.03
		C661.7,390.43,661.65,387.78,661.44,385.15z M665.34,401.63c-2.93-6.31-2.98-6.29,2.91-10c0.72-0.45,1.43-0.91,2.12-1.41
		c1.52-1.1,2.81-2.39,4.73-0.23c1.07,1.21,2.96,0.75,4.54,0.22c2.98-0.99,5.45-2.83,7.93-4.65c3.85-2.83,7.8-5.5,11.99-7.83
		c2.42-1.34,4.9-1.68,8.25-0.76c-9.43,6.05-18.27,11.71-27.11,17.38c-4.2,2.69-8.44,5.31-12.57,8.08
		C666.65,403.4,666.05,403.17,665.34,401.63z M668.33,406.71c-1.87-1.6-0.36-2.33,0.98-3.18c12.62-8.05,25.2-16.15,37.83-24.18
		c0.68-0.43,1.34-1.64,2.44-0.83c1.01,0.75,1.3,1.89,1.26,3.12c0.06,2.12-1.54,3.14-2.88,4.33c-4.86,4.36-10.72,7.24-16.09,10.85
		c-6.23,4.19-12.68,8.06-18.86,12.32C669.52,411.56,669.66,407.84,668.33,406.71z M676.28,415.66c-4.76-3.82-4.73-3.85,0.3-6.94
		c2.05-1.26,4.1-2.51,6.27-3.83c0.04,5.02,0.04,5.02,7.73,4.58c-4.06,2.74-7.59,5.18-11.17,7.53
		C677.82,418.04,677.14,416.35,676.28,415.66z M684.31,421.03c-1.21-0.83-2.56-1.45-4.38-2.46c7.57-5.09,14.7-9.85,21.78-14.67
		c1.43-0.97,2.47-0.27,3.35,0.64c0.95,0.99,0.82,2.34-0.22,3.1c-5.28,3.82-8.07,10.24-14.33,13.2
		C688.1,421.98,686.49,422.52,684.31,421.03z M693.76,407.55c1.31-2.13,3.18-3.64,5.39-4.67c0.16,0.22,0.33,0.44,0.49,0.65
		C697.69,404.87,695.73,406.21,693.76,407.55z M689.77,423.01c4.84-2.42,8.05-7.23,13.85-7.43c1.05-0.04,2.14-0.07,3.15,0.17
		c0.9,0.22,1.35,0.81,0.68,1.9C704.05,423.23,696.12,425.81,689.77,423.01z M742.74,387.81c-1.4,1.58-2.51,3.43-3.63,5.23
		c-1.38,2.23-1.47,4.47,0.65,6.32c0.85,0.74,1.18,1.24,0.66,2.37c-7.09,15.43-24.17,24.77-38.56,23.32c2.5-1.68,4.79-3.15,6.57-5.26
		c1.09-1.28,2.15-2.5,1.34-4.24c-0.74-1.59-2.16-2.29-3.9-2.31c-1.27-0.02-2.54,0-3.85,0c0.47-1.46,2.01-2.06,3.22-2.95
		c1.75-1.28,3.01-2.91,2.6-5.09c-0.46-2.39-2.17-3.79-4.62-4.21c-3.09-0.52-5.83,0.06-8.37,2.05c-2.15,1.68-4.11,3.74-6.93,4.44
		c-0.91,0.23-1.91,0.93-2.65-0.01c-0.85-1.09,0.14-2.07,0.75-2.82c1.63-1.98,3.73-3.47,5.79-5c5.55-4.14,11.88-7.08,17.19-11.58
		c3.93-3.33,5.14-6,3.59-9.19c-1.79-3.68-5.87-5.46-10.25-4.44c-5.89,1.37-10.31,5.38-15.15,8.61c-2.65,1.77-5.03,3.96-8.14,4.95
		c-1.21,0.38-2.68,0.86-3.48-0.49c-0.71-1.2-0.08-2.44,0.8-3.49c1.6-1.91,3.74-3.14,5.68-4.63c2.63-2.02,5.05-4.25,6.92-7.02
		c1.51-2.25,1.07-4.21-0.94-5.89c-2.89-2.43-6.08-3.21-9.8-2.11c-5.26,1.56-9.87,4.34-15.19,7.79c6.43-17,17.73-27.16,34.94-29.2
		c17.33-2.06,30.89,4.93,40.5,19.61c1.48,2.26,0.8,3.55-0.79,5.13c-3.55,3.53-7.14,7.01-10.03,11.14c-0.98,1.41-1.9,2.81-2.38,4.47
		c-0.69,2.34-1.18,4.93,1.03,6.46c2.23,1.54,4.97,1.16,7.22-0.42c3.74-2.62,7.07-5.76,10.43-9.56
		C744.66,383,744.81,385.48,742.74,387.81z"/>
	<path class="st27" d="M410.53,573.01c-5.32-2.67-10.48-2.18-15.27,1.48c-0.78,0.6-1.51,2.01-2.65,1.08
		c-3.69-3.02-8.87-4.09-11.3-8.8c-0.58-1.12-1.85-1.83-3.28-1.01c-1.38,0.8-2.35,1.82-1.7,3.61c0.57,1.58,1.86,2.43,3.21,1.72
		c1.85-0.97,3-0.04,4.3,0.81c2.14,1.39,4.18,2.95,6.4,4.2c1.77,0.99,1.89,1.88,1.04,3.73c-2.48,5.38-1.24,11.52,2.83,15.64
		c3.99,4.04,10.02,5.28,15.34,3.16c5.17-2.06,8.69-7.26,8.79-14.71C418.08,579.96,415.65,575.58,410.53,573.01z M378.75,569.44
		c-0.58-0.03-0.96-0.37-0.89-1c0.08-0.68,0.44-1.15,1.19-1.16c0.82-0.01,0.99,0.58,1.06,1.23C380,569.32,379.4,569.47,378.75,569.44
		z M397.6,589.95c-2.48-3.53-2.16-7.33,0.79-10.19c3.1-2.99,7.18-3.15,11.17-0.21c-1.76,0.77-3.89,0.5-4.99,2.15
		c-1.27,1.92-0.6,3.57,1.61,5.19C402.56,587.46,398.89,585.5,397.6,589.95z M404.61,588.75c-1.6,1.77-2.69,2.72-4.86,3.29
		C400.98,589.95,402.28,589.33,404.61,588.75z M402.14,593.09c2.84-2.04,5.68-4.09,8.52-6.13c0.19,0.22,0.37,0.44,0.56,0.66
		C408.18,589.42,406.46,593.1,402.14,593.09z M411.92,583.33c-0.22,1.62-1.74,1.87-2.89,2.75c-0.31-0.33-0.85-0.72-0.79-0.87
		c0.52-1.32,1.79-1.88,2.91-2.53C411.56,582.44,411.99,582.86,411.92,583.33z"/>
	<path class="st8" d="M624.51,365.53c-1.8,0.05-4.13,2.8-4.19,4.92c-0.07,2.69,2.02,4.89,4.69,4.93c2.66,0.04,4.89-2.1,4.92-4.74
		C629.97,367.96,627.31,365.45,624.51,365.53z M625.08,373.15c-1.38,0.12-2.44-0.94-2.54-2.36c-0.12-1.66,0.94-2.39,2.56-2.57
		c1.72-0.19,2.21,0.87,2.55,2.18C627.61,372.1,626.49,373.03,625.08,373.15z"/>
	<path class="st15" d="M737.45,366.13c-0.15,0.82-0.7,1.37-1.46,1.38c-0.9,0-1.6-0.62-1.59-1.56c0-0.91,0.87-1.16,1.58-1.17
		C736.76,364.78,737.31,365.3,737.45,366.13z"/>
	<path class="st28" d="M696.1,357.46c0.95,0.03,1.32,0.69,1.42,1.42c0.11,0.8-0.36,1.43-1.15,1.58c-0.86,0.17-1.4-0.46-1.55-1.18
		C694.62,358.3,695.35,357.82,696.1,357.46z"/>
	<path class="st29" d="M726.88,364.45c0.25-0.78,0.62-1.47,1.49-1.42c0.76,0.04,1.5,0.39,1.44,1.33c-0.06,0.82-0.67,1.41-1.43,1.38
		C727.69,365.7,726.96,365.32,726.88,364.45z"/>
	<path class="st28" d="M721.07,364.41c-0.78-0.12-1.33-0.57-1.41-1.37c-0.11-1.01,0.54-1.59,1.44-1.63
		c0.86-0.04,1.27,0.73,1.27,1.47C722.37,363.63,721.93,364.23,721.07,364.41z"/>
	<path class="st30" d="M686.4,356.37c0.75,0.32,1.29,0.8,1.21,1.64c-0.08,0.85-0.7,1.36-1.49,1.23c-0.71-0.12-1.38-0.59-1.19-1.53
		C685.1,356.93,685.6,356.46,686.4,356.37z"/>
	<path class="st24" d="M676.04,355.93c1.14-0.15,1.76,0.26,1.87,1.05c0.13,0.98-0.55,1.56-1.46,1.62c-0.83,0.05-1.31-0.61-1.45-1.36
		C674.8,356.26,675.64,356.13,676.04,355.93z"/>
	<path class="st22" d="M712.99,362.95c-0.81-0.19-1.16-0.75-1.17-1.56c-0.02-0.95,0.66-1.31,1.41-1.31c0.85,0,1.27,0.66,1.25,1.47
		C714.45,362.46,713.72,362.71,712.99,362.95z"/>
	<path class="st17" d="M705.2,361.45c-0.88-0.13-1.32-0.68-1.17-1.52c0.12-0.67,0.73-1.09,1.38-1.1c0.87-0.01,1.36,0.64,1.35,1.43
		C706.76,361.19,706,361.4,705.2,361.45z"/>
</g>
</svg>
