<svg xmlns="http://www.w3.org/2000/svg" width="321.504" height="47.207" viewBox="0 0 321.504 47.207">
  <title>Pima Community Colloege</title>
  <defs>
    <style>
      .cls-1 {
        fill: #fff;
      }
    </style>
  </defs>
  <g id="Group_536" data-name="Group 536" transform="translate(-9.545 -13.227)">
    <g id="Group_187" data-name="Group 187" transform="translate(9.545 13.227)">
      <g id="Group_181" data-name="Group 181" transform="translate(0 13.979)">
        <path id="Path_338" data-name="Path 338" class="cls-1" d="M11.095,22.7c-1.928,3.562-2.577,8.99,1.153,9.619H29.727V29.109a2.55,2.55,0,0,0-2.663-2.388H14.28c-1.718-.127-2.912-1.593-3.163-4.024Z" transform="translate(-9.545 -22.697)"/>
        <path id="Path_339" data-name="Path 339" class="cls-1" d="M11.708,39.487c-2.347-3.27-3.249-8.906.481-9.536H22.667v3.208a2.546,2.546,0,0,1-2.66,2.388H14.222c-1.718.125-2.242,1.55-2.493,3.981Z" transform="translate(-9.487 -19.243)"/>
      </g>
      <g id="Group_182" data-name="Group 182" transform="translate(3.972 24.296)">
        <path id="Path_340" data-name="Path 340" class="cls-1" d="M12.236,42.878c2.121,3.45,6.5,6.727,8.906,3.81L29.88,31.552l-2.777-1.6a2.55,2.55,0,0,0-3.4,1.112L17.312,42.13c-.967,1.426-2.836,1.726-5.066.729Z" transform="translate(-12.236 -29.686)"/>
        <path id="Path_341" data-name="Path 341" class="cls-1" d="M26.992,49.659c-4,.4-9.338-1.64-8.017-5.183L24.214,35.4,26.991,37a2.545,2.545,0,0,1,.738,3.5l-2.892,5.012c-.75,1.55.223,2.716,2.2,4.149Z" transform="translate(-9.125 -26.966)"/>
      </g>
      <g id="Group_183" data-name="Group 183" transform="translate(26.216 12.931)">
        <path id="Path_342" data-name="Path 342" class="cls-1" d="M45.935,38.833c1.928-3.563,2.577-8.993-1.153-9.62H27.3v3.206a2.546,2.546,0,0,0,2.661,2.388H42.748c1.72.127,2.914,1.594,3.165,4.025Z" transform="translate(-27.305 -18.546)"/>
        <path id="Path_343" data-name="Path 343" class="cls-1" d="M42.949,22.028c2.347,3.27,3.249,8.906-.481,9.534H31.99V28.357a2.548,2.548,0,0,1,2.661-2.388h5.784c1.718-.125,2.242-1.55,2.493-3.981Z" transform="translate(-25.074 -21.987)"/>
      </g>
      <g id="Group_184" data-name="Group 184" transform="translate(20.746 26.262)">
        <path id="Path_344" data-name="Path 344" class="cls-1" d="M28.5,51.963c4.049-.112,9.075-2.264,7.754-5.809L27.517,31.018l-2.778,1.6A2.549,2.549,0,0,0,24,36.12l6.393,11.071c.75,1.551.077,3.318-1.9,4.752Z" transform="translate(-23.599 -31.018)"/>
        <path id="Path_345" data-name="Path 345" class="cls-1" d="M43,40.055c-1.658,3.668-6.089,7.266-8.5,4.352l-5.239-9.075,2.777-1.6a2.551,2.551,0,0,1,3.4,1.113l2.892,5.009c.968,1.424,2.464,1.165,4.7.167Z" transform="translate(-20.902 -29.853)"/>
      </g>
      <g id="Group_185" data-name="Group 185" transform="translate(3.485)">
        <path id="Path_346" data-name="Path 346" class="cls-1" d="M26.087,13.227c-4.051.111-9.075,2.263-7.754,5.807l8.739,15.136,2.777-1.6a2.547,2.547,0,0,0,.738-3.5L24.194,18c-.75-1.551-.077-3.32,1.9-4.753Z" transform="translate(-8.949 -13.227)"/>
        <path id="Path_347" data-name="Path 347" class="cls-1" d="M11.931,22.252c1.658-3.668,6.089-7.267,8.5-4.352l5.239,9.075-2.778,1.6a2.549,2.549,0,0,1-3.4-1.112L16.6,22.46c-.967-1.427-2.464-1.166-4.694-.17Z" transform="translate(-11.906 -11.51)"/>
      </g>
      <g id="Group_186" data-name="Group 186" transform="translate(23.316 0.014)">
        <path id="Path_348" data-name="Path 348" class="cls-1" d="M43.909,21.3c-2.123-3.448-6.5-6.727-8.909-3.81L26.263,32.625l2.777,1.6a2.55,2.55,0,0,0,3.4-1.11l6.392-11.073c.967-1.424,2.836-1.724,5.066-.728Z" transform="translate(-24.901 -11.748)"/>
        <path id="Path_349" data-name="Path 349" class="cls-1" d="M26.481,13.286c4-.4,9.337,1.64,8.015,5.184l-5.239,9.074-2.777-1.6a2.546,2.546,0,0,1-.738-3.5l2.892-5.009c.75-1.553-.221-2.719-2.2-4.151Z" transform="translate(-25.341 -13.237)"/>
      </g>
    </g>
    <path id="Path_350" data-name="Path 350" class="cls-1" d="M54.069,31.069v-5.28h2.979c2.328,0,3.305.725,3.305,2.478,0,.8,0,2.8-2.8,2.8Zm0,3.106h4.306a5.508,5.508,0,0,0,5.733-5.732c0-3.531-2.1-5.76-5.584-5.76h-8.21V40.658h3.755Z" transform="translate(19.412 4.502)"/>
    <path id="Path_351" data-name="Path 351" class="cls-1" d="M64.165,27.4V40.714H60.659V27.4Zm0-1.578H60.659V22.565h3.506Z" transform="translate(24.338 4.446)"/>
    <path id="Path_352" data-name="Path 352" class="cls-1" d="M83.52,39.269H80.014V31.183c0-1.977-.877-2.628-1.9-2.628-1.752,0-2.378,1.151-2.378,2.729v7.984H72.228V31.258c0-1.126,0-2.7-2.1-2.7-1.652,0-2.177,1.151-2.177,2.6v8.11H64.441V25.951H67.8v1.954h.05a3.961,3.961,0,0,1,3.78-2.306,3.808,3.808,0,0,1,3.705,2.129A4.156,4.156,0,0,1,78.888,25.6c2.6,0,4.632,1.528,4.632,4.458Z" transform="translate(26.138 5.891)"/>
    <path id="Path_353" data-name="Path 353" class="cls-1" d="M86.34,34.489a2.9,2.9,0,0,1-3.129,2.628,1.529,1.529,0,0,1-1.628-1.6c0-1.453,1.076-1.777,2.378-2a5.14,5.14,0,0,0,2.38-.726Zm3.429-5.032c0-3.279-3.429-3.857-5.307-3.857-2.729,0-5.558.579-5.959,4.659h3.38A1.884,1.884,0,0,1,84.036,28.4c.9,0,2.3.075,2.3,1.551,0,.751-.676.977-1.227,1.052l-3.156.477c-2.228.322-3.879,1.652-3.879,4.254a3.737,3.737,0,0,0,4.055,3.881,5.423,5.423,0,0,0,4.307-1.928,5.844,5.844,0,0,0,.325,1.577h3.78v-.523c-.425-.152-.776-.5-.776-2.081Z" transform="translate(32.631 5.891)"/>
    <path id="Path_354" data-name="Path 354" class="cls-1" d="M99.181,28.72a3.654,3.654,0,0,0-3.98-3.1c-1.8,0-4.456,1.2-4.456,6.284,0,3.23,1.275,6.133,4.456,6.133a3.835,3.835,0,0,0,3.98-3.38h3.755c-.75,3.909-3.305,6.635-7.812,6.635-4.78,0-8.212-3.23-8.212-9.438,0-6.284,3.631-9.489,8.263-9.489,5.383,0,7.561,3.705,7.76,6.359Z" transform="translate(36.838 4.349)"/>
    <path id="Path_355" data-name="Path 355" class="cls-1" d="M108.155,32.612c0,1.7-.5,4.053-3.2,4.053s-3.2-2.351-3.2-4.053.5-4.056,3.2-4.056S108.155,30.908,108.155,32.612Zm3.608,0c0-4.809-3.23-7.012-6.811-7.012s-6.809,2.2-6.809,7.012,3.23,7.009,6.809,7.009S111.762,37.418,111.762,32.612Z" transform="translate(42.185 5.891)"/>
    <path id="Path_356" data-name="Path 356" class="cls-1" d="M127.243,39.269h-3.5V31.183c0-1.977-.877-2.628-1.906-2.628-1.749,0-2.377,1.151-2.377,2.729v7.984h-3.5V31.258c0-1.126,0-2.7-2.1-2.7-1.65,0-2.179,1.151-2.179,2.6v8.11h-3.5V25.951h3.355v1.954h.049a3.966,3.966,0,0,1,3.783-2.306,3.81,3.81,0,0,1,3.7,2.129,4.155,4.155,0,0,1,3.555-2.129c2.6,0,4.632,1.528,4.632,4.458Z" transform="translate(46.957 5.891)"/>
    <path id="Path_357" data-name="Path 357" class="cls-1" d="M141.471,39.269h-3.5V31.183c0-1.977-.875-2.628-1.9-2.628-1.755,0-2.38,1.151-2.38,2.729v7.984H130.18V31.258c0-1.126,0-2.7-2.1-2.7-1.653,0-2.179,1.151-2.179,2.6v8.11h-3.5V25.951h3.352v1.954h.052a3.959,3.959,0,0,1,3.779-2.306,3.807,3.807,0,0,1,3.707,2.129A4.153,4.153,0,0,1,136.84,25.6c2.605,0,4.631,1.528,4.631,4.458Z" transform="translate(53.733 5.891)"/>
    <path id="Path_358" data-name="Path 358" class="cls-1" d="M148.317,39.156H144.96V37.28h-.049a4.388,4.388,0,0,1-4.058,2.227c-2.629,0-4.53-1.5-4.53-4.908V25.838h3.507V34.1c0,2.052,1.2,2.452,2.276,2.452,1.151,0,2.7-.65,2.7-3.028V25.838h3.507Z" transform="translate(60.365 6.005)"/>
    <path id="Path_359" data-name="Path 359" class="cls-1" d="M157.863,39.269h-3.506V31.183c0-.976-.049-2.628-2.278-2.628-1.553,0-2.754,1.051-2.754,3.079v7.635h-3.5V25.951h3.352v1.954h.052a4.287,4.287,0,0,1,4.006-2.306c2.6,0,4.632,1.528,4.632,4.458Z" transform="translate(64.887 5.891)"/>
    <path id="Path_360" data-name="Path 360" class="cls-1" d="M158.909,27.4V40.714H155.4V27.4Zm0-1.578H155.4V22.565h3.506Z" transform="translate(69.449 4.446)"/>
    <path id="Path_361" data-name="Path 361" class="cls-1" d="M163.576,27h2.179v2.5h-2.179v7.235c0,.778.024,1.078,1.453,1.078.224,0,.474-.025.726-.05V40.42c-.552.024-1.1.05-1.653.05h-.452c-3.029,0-3.578-1.153-3.578-2.88V29.5h-1.8V27h1.8V23.4h3.5Z" transform="translate(70.815 4.842)"/>
    <path id="Path_362" data-name="Path 362" class="cls-1" d="M171.732,38.931c-1.653,4.932-2.1,5.584-5.158,5.584-.477,0-1.078-.027-1.578-.05V41.659a3.974,3.974,0,0,0,.678.05c1.277,0,1.977-.174,2.3-2l-4.907-13.87h3.9l2.856,9.815h.049l2.729-9.815h3.705Z" transform="translate(73.1 6.005)"/>
    <path id="Path_363" data-name="Path 363" class="cls-1" d="M184.495,28.72a3.653,3.653,0,0,0-3.981-3.1c-1.8,0-4.455,1.2-4.455,6.284,0,3.23,1.277,6.133,4.455,6.133a3.836,3.836,0,0,0,3.981-3.38h3.755c-.75,3.909-3.305,6.635-7.812,6.635-4.783,0-8.21-3.23-8.21-9.438,0-6.284,3.63-9.489,8.262-9.489,5.382,0,7.561,3.705,7.76,6.359Z" transform="translate(77.461 4.349)"/>
    <path id="Path_364" data-name="Path 364" class="cls-1" d="M193.469,32.612c0,1.7-.5,4.053-3.2,4.053s-3.2-2.351-3.2-4.053.5-4.056,3.2-4.056S193.469,30.908,193.469,32.612Zm3.6,0c0-4.809-3.228-7.012-6.808-7.012s-6.811,2.2-6.811,7.012,3.231,7.009,6.811,7.009S197.074,37.418,197.074,32.612Z" transform="translate(82.806 5.891)"/>
    <path id="Path_365" data-name="Path 365" class="cls-1" d="M197.069,40.658h-3.506V22.683h3.506Z" transform="translate(87.619 4.502)"/>
    <path id="Path_366" data-name="Path 366" class="cls-1" d="M200.937,40.658h-3.506V22.683h3.506Z" transform="translate(89.461 4.502)"/>
    <path id="Path_367" data-name="Path 367" class="cls-1" d="M204.123,31.285c.2-1.754,1.078-2.8,2.729-2.8,1.126,0,2.5.651,2.7,2.8Zm5.28,4.08a2.245,2.245,0,0,1-2.25,1.453c-2.833,0-3.031-2.253-3.131-3.255h9.137v-.626c0-6.085-3.628-7.336-6.26-7.336-5.831,0-6.383,5.134-6.383,6.736,0,5.482,2.881,7.285,6.637,7.285a5.77,5.77,0,0,0,5.857-4.256Z" transform="translate(90.93 5.891)"/>
    <path id="Path_368" data-name="Path 368" class="cls-1" d="M212.994,32.687c0-3.1,1.451-4.056,2.754-4.056,1.951,0,3,1.752,3,3.9,0,1.829-.6,3.856-2.979,3.856C213.695,36.391,212.994,34.387,212.994,32.687Zm5.882-6.736v1.977h-.05A4.013,4.013,0,0,0,214.92,25.6c-2.929,0-5.531,2.256-5.531,6.861,0,4.656,2.527,6.885,5.73,6.885a3.617,3.617,0,0,0,3.555-2l.053.05v1.6c0,2.154-.9,3.056-2.781,3.056-2.028,0-2.3-.678-2.453-1.351h-3.8c.151,2.828,3.053,4,5.807,4,6.56,0,6.733-3.829,6.733-6.135V25.951Z" transform="translate(95.155 5.891)"/>
    <path id="Path_369" data-name="Path 369" class="cls-1" d="M222.385,31.285c.2-1.754,1.078-2.8,2.728-2.8,1.126,0,2.505.651,2.706,2.8Zm5.282,4.08a2.248,2.248,0,0,1-2.251,1.453c-2.828,0-3.03-2.253-3.131-3.255h9.139v-.626c0-6.085-3.631-7.336-6.259-7.336-5.834,0-6.384,5.134-6.384,6.736,0,5.482,2.878,7.285,6.635,7.285a5.767,5.767,0,0,0,5.857-4.256Z" transform="translate(99.626 5.891)"/>
  </g>
</svg>
