<svg xmlns="http://www.w3.org/2000/svg" xmlns:xlink="http://www.w3.org/1999/xlink" width="407" zoomAndPan="magnify" viewBox="0 0 305.25 50.249999" height="67" preserveAspectRatio="xMidYMid meet" version="1.0"><defs><g/><clipPath id="id1"><path d="M 39 9 L 59 9 L 59 29 L 39 29 Z M 39 9 " clip-rule="nonzero"/></clipPath><clipPath id="id2"><path d="M 48.710938 0 L 67.523438 18.8125 L 56.027344 30.304688 L 37.214844 11.496094 Z M 48.710938 0 " clip-rule="nonzero"/></clipPath><clipPath id="id3"><path d="M 48.710938 0 L 67.523438 18.8125 L 56.027344 30.304688 L 37.214844 11.496094 Z M 48.710938 0 " clip-rule="nonzero"/></clipPath><clipPath id="id4"><path d="M 48.710938 0 L 67.523438 18.8125 L 56.027344 30.304688 L 37.214844 11.496094 Z M 48.710938 0 " clip-rule="nonzero"/></clipPath></defs><path fill="rgb(100%, 100%, 100%)" d="M 21.945312 7.046875 L 60.371094 7.046875 L 60.371094 45.472656 L 21.945312 45.472656 L 21.945312 7.046875 " fill-opacity="1" fill-rule="nonzero"/><g clip-path="url(#id1)"><g clip-path="url(#id2)"><g clip-path="url(#id3)"><g clip-path="url(#id4)"><path fill="rgb(0%, 0%, 0%)" d="M 39.484375 13.660156 L 53.703125 13.820312 L 53.859375 28.035156 L 58.246094 28.085938 L 58.042969 9.480469 L 39.4375 9.273438 Z M 39.484375 13.660156 " fill-opacity="1" fill-rule="nonzero"/></g></g></g></g><path fill="rgb(0%, 0%, 0%)" d="M 48.214844 15.625 L 53.390625 15.625 L 53.390625 20.796875 L 48.214844 20.796875 L 48.214844 15.625 " fill-opacity="1" fill-rule="nonzero"/><g fill="rgb(100%, 100%, 100%)" fill-opacity="1"><g transform="translate(67.51679, 23.32789)"><g><path d="M 5.734375 -3.03125 L 7.5 -3.03125 C 9.019531 -3.03125 10.210938 -3.492188 11.078125 -4.421875 C 11.953125 -5.359375 12.390625 -6.609375 12.390625 -8.171875 C 12.390625 -9.734375 11.953125 -10.976562 11.078125 -11.90625 C 10.210938 -12.84375 9.019531 -13.3125 7.5 -13.3125 L 5.734375 -13.3125 Z M 7.5 -16.34375 C 10.101562 -16.34375 12.242188 -15.582031 13.921875 -14.0625 C 15.597656 -12.550781 16.4375 -10.585938 16.4375 -8.171875 C 16.4375 -5.765625 15.597656 -3.800781 13.921875 -2.28125 C 12.242188 -0.757812 10.101562 0 7.5 0 L 1.75 0 L 1.75 -16.34375 Z M 7.5 -16.34375 "/></g></g></g><g fill="rgb(100%, 100%, 100%)" fill-opacity="1"><g transform="translate(86.489867, 23.32789)"><g><path d="M 5.375 -14.453125 C 4.925781 -14.003906 4.375 -13.78125 3.71875 -13.78125 C 3.070312 -13.78125 2.519531 -14.003906 2.0625 -14.453125 C 1.613281 -14.910156 1.390625 -15.46875 1.390625 -16.125 C 1.390625 -16.78125 1.613281 -17.332031 2.0625 -17.78125 C 2.519531 -18.238281 3.070312 -18.46875 3.71875 -18.46875 C 4.375 -18.46875 4.925781 -18.238281 5.375 -17.78125 C 5.820312 -17.332031 6.046875 -16.78125 6.046875 -16.125 C 6.046875 -15.46875 5.820312 -14.910156 5.375 -14.453125 Z M 1.75 0 L 1.75 -12.984375 L 5.734375 -12.984375 L 5.734375 0 Z M 1.75 0 "/></g></g></g><g fill="rgb(100%, 100%, 100%)" fill-opacity="1"><g transform="translate(95.732418, 23.32789)"><g><path d="M 2.515625 -1.703125 C 1.367188 -2.941406 0.796875 -4.53125 0.796875 -6.46875 C 0.796875 -8.40625 1.367188 -10 2.515625 -11.25 C 3.660156 -12.5 5.0625 -13.125 6.71875 -13.125 C 8.375 -13.125 9.640625 -12.515625 10.515625 -11.296875 L 10.515625 -12.984375 L 14.5 -12.984375 L 14.5 -0.0625 C 14.5 1.75 14.003906 3.257812 13.015625 4.46875 C 12.515625 5.09375 11.832031 5.570312 10.96875 5.90625 C 10.113281 6.25 9.117188 6.421875 7.984375 6.421875 C 5.992188 6.421875 4.414062 6.015625 3.25 5.203125 C 2.09375 4.398438 1.4375 3.171875 1.28125 1.515625 L 5.1875 1.515625 C 5.5625 2.492188 6.492188 2.984375 7.984375 2.984375 C 8.710938 2.984375 9.316406 2.738281 9.796875 2.25 C 10.273438 1.757812 10.515625 0.988281 10.515625 -0.0625 L 10.515625 -1.890625 C 9.554688 -0.523438 8.269531 0.15625 6.65625 0.15625 C 5.039062 0.15625 3.660156 -0.460938 2.515625 -1.703125 Z M 9.65625 -4.109375 C 10.226562 -4.671875 10.515625 -5.460938 10.515625 -6.484375 C 10.515625 -7.515625 10.226562 -8.304688 9.65625 -8.859375 C 9.082031 -9.410156 8.421875 -9.6875 7.671875 -9.6875 C 6.929688 -9.6875 6.273438 -9.40625 5.703125 -8.84375 C 5.128906 -8.289062 4.84375 -7.5 4.84375 -6.46875 C 4.84375 -5.445312 5.128906 -4.660156 5.703125 -4.109375 C 6.273438 -3.554688 6.929688 -3.28125 7.671875 -3.28125 C 8.421875 -3.28125 9.082031 -3.554688 9.65625 -4.109375 Z M 9.65625 -4.109375 "/></g></g></g><g fill="rgb(100%, 100%, 100%)" fill-opacity="1"><g transform="translate(113.751057, 23.32789)"><g><path d="M 5.375 -14.453125 C 4.925781 -14.003906 4.375 -13.78125 3.71875 -13.78125 C 3.070312 -13.78125 2.519531 -14.003906 2.0625 -14.453125 C 1.613281 -14.910156 1.390625 -15.46875 1.390625 -16.125 C 1.390625 -16.78125 1.613281 -17.332031 2.0625 -17.78125 C 2.519531 -18.238281 3.070312 -18.46875 3.71875 -18.46875 C 4.375 -18.46875 4.925781 -18.238281 5.375 -17.78125 C 5.820312 -17.332031 6.046875 -16.78125 6.046875 -16.125 C 6.046875 -15.46875 5.820312 -14.910156 5.375 -14.453125 Z M 1.75 0 L 1.75 -12.984375 L 5.734375 -12.984375 L 5.734375 0 Z M 1.75 0 "/></g></g></g><g fill="rgb(100%, 100%, 100%)" fill-opacity="1"><g transform="translate(122.993609, 23.32789)"><g><path d="M 7.265625 -3.375 L 8.6875 -3.375 L 8.6875 0 L 6.65625 0 C 5.195312 0 4.066406 -0.320312 3.265625 -0.96875 C 2.472656 -1.613281 2.078125 -2.71875 2.078125 -4.28125 L 2.078125 -9.6875 L 0.859375 -9.6875 L 0.859375 -12.984375 L 2.078125 -12.984375 L 2.078125 -16.15625 L 6.046875 -16.15625 L 6.046875 -12.984375 L 8.65625 -12.984375 L 8.65625 -9.6875 L 6.046875 -9.6875 L 6.046875 -4.28125 C 6.046875 -3.675781 6.453125 -3.375 7.265625 -3.375 Z M 7.265625 -3.375 "/></g></g></g><g fill="rgb(100%, 100%, 100%)" fill-opacity="1"><g transform="translate(134.424355, 23.32789)"><g><path d="M 9.65625 -4.109375 C 10.226562 -4.671875 10.515625 -5.460938 10.515625 -6.484375 C 10.515625 -7.515625 10.226562 -8.304688 9.65625 -8.859375 C 9.082031 -9.410156 8.421875 -9.6875 7.671875 -9.6875 C 6.929688 -9.6875 6.273438 -9.40625 5.703125 -8.84375 C 5.128906 -8.289062 4.84375 -7.5 4.84375 -6.46875 C 4.84375 -5.445312 5.128906 -4.660156 5.703125 -4.109375 C 6.273438 -3.554688 6.929688 -3.28125 7.671875 -3.28125 C 8.421875 -3.28125 9.082031 -3.554688 9.65625 -4.109375 Z M 2.515625 -1.703125 C 1.367188 -2.941406 0.796875 -4.53125 0.796875 -6.46875 C 0.796875 -8.40625 1.367188 -10 2.515625 -11.25 C 3.660156 -12.5 5.0625 -13.125 6.71875 -13.125 C 8.375 -13.125 9.640625 -12.515625 10.515625 -11.296875 L 10.515625 -12.984375 L 14.5 -12.984375 L 14.5 0 L 10.515625 0 L 10.515625 -1.890625 C 9.554688 -0.523438 8.269531 0.15625 6.65625 0.15625 C 5.039062 0.15625 3.660156 -0.460938 2.515625 -1.703125 Z M 2.515625 -1.703125 "/></g></g></g><g fill="rgb(100%, 100%, 100%)" fill-opacity="1"><g transform="translate(152.442994, 23.32789)"><g><path d="M 1.75 0 L 1.75 -17.234375 L 5.734375 -17.234375 L 5.734375 0 Z M 1.75 0 "/></g></g></g><g fill="rgb(100%, 100%, 100%)" fill-opacity="1"><g transform="translate(161.685546, 23.32789)"><g><path d="M 1.671875 -6.59375 L 1.671875 -16.34375 L 5.65625 -16.34375 L 5.65625 -6.59375 C 5.65625 -5.613281 5.894531 -4.859375 6.375 -4.328125 C 6.851562 -3.796875 7.554688 -3.53125 8.484375 -3.53125 C 9.421875 -3.53125 10.140625 -3.796875 10.640625 -4.328125 C 11.140625 -4.859375 11.390625 -5.613281 11.390625 -6.59375 L 11.390625 -16.34375 L 15.359375 -16.34375 L 15.359375 -6.59375 C 15.359375 -5.144531 15.019531 -3.894531 14.34375 -2.84375 C 13.675781 -1.800781 12.828125 -1.039062 11.796875 -0.5625 C 10.765625 -0.0820312 9.640625 0.15625 8.421875 0.15625 C 6.535156 0.15625 4.9375 -0.429688 3.625 -1.609375 C 2.320312 -2.785156 1.671875 -4.445312 1.671875 -6.59375 Z M 1.671875 -6.59375 "/></g></g></g><g fill="rgb(100%, 100%, 100%)" fill-opacity="1"><g transform="translate(180.472389, 23.32789)"><g><path d="M 10.546875 -4.109375 C 11.117188 -4.660156 11.40625 -5.445312 11.40625 -6.46875 C 11.40625 -7.5 11.117188 -8.289062 10.546875 -8.84375 C 9.972656 -9.40625 9.3125 -9.6875 8.5625 -9.6875 C 7.820312 -9.6875 7.164062 -9.410156 6.59375 -8.859375 C 6.019531 -8.304688 5.734375 -7.515625 5.734375 -6.484375 C 5.734375 -5.460938 6.019531 -4.671875 6.59375 -4.109375 C 7.164062 -3.554688 7.820312 -3.28125 8.5625 -3.28125 C 9.3125 -3.28125 9.972656 -3.554688 10.546875 -4.109375 Z M 5.734375 -11.296875 C 6.609375 -12.515625 7.875 -13.125 9.53125 -13.125 C 11.1875 -13.125 12.585938 -12.5 13.734375 -11.25 C 14.878906 -10 15.453125 -8.40625 15.453125 -6.46875 C 15.453125 -4.53125 14.878906 -2.941406 13.734375 -1.703125 C 12.585938 -0.460938 11.195312 0.15625 9.5625 0.15625 C 7.9375 0.15625 6.660156 -0.523438 5.734375 -1.890625 L 5.734375 6.1875 L 1.75 6.1875 L 1.75 -12.984375 L 5.734375 -12.984375 Z M 5.734375 -11.296875 "/></g></g></g><g fill="rgb(100%, 100%, 100%)" fill-opacity="1"><g transform="translate(198.491022, 23.32789)"><g><path d="M 7.265625 -3.375 L 8.6875 -3.375 L 8.6875 0 L 6.65625 0 C 5.195312 0 4.066406 -0.320312 3.265625 -0.96875 C 2.472656 -1.613281 2.078125 -2.71875 2.078125 -4.28125 L 2.078125 -9.6875 L 0.859375 -9.6875 L 0.859375 -12.984375 L 2.078125 -12.984375 L 2.078125 -16.15625 L 6.046875 -16.15625 L 6.046875 -12.984375 L 8.65625 -12.984375 L 8.65625 -9.6875 L 6.046875 -9.6875 L 6.046875 -4.28125 C 6.046875 -3.675781 6.453125 -3.375 7.265625 -3.375 Z M 7.265625 -3.375 "/></g></g></g><g fill="rgb(100%, 100%, 100%)" fill-opacity="1"><g transform="translate(209.921762, 23.32789)"><g><path d="M 5.734375 -12.984375 L 5.734375 -10.5625 C 6.660156 -12.269531 7.898438 -13.125 9.453125 -13.125 L 9.453125 -9.078125 L 8.46875 -9.078125 C 7.550781 -9.078125 6.863281 -8.859375 6.40625 -8.421875 C 5.957031 -7.992188 5.734375 -7.234375 5.734375 -6.140625 L 5.734375 0 L 1.75 0 L 1.75 -12.984375 Z M 5.734375 -12.984375 "/></g></g></g><g fill="rgb(100%, 100%, 100%)" fill-opacity="1"><g transform="translate(221.562019, 23.32789)"><g><path d="M 7.265625 0.15625 C 5.367188 0.15625 3.816406 -0.453125 2.609375 -1.671875 C 1.398438 -2.890625 0.796875 -4.503906 0.796875 -6.515625 C 0.796875 -8.535156 1.394531 -10.140625 2.59375 -11.328125 C 3.800781 -12.523438 5.359375 -13.125 7.265625 -13.125 C 9.171875 -13.125 10.753906 -12.535156 12.015625 -11.359375 C 13.273438 -10.179688 13.90625 -8.546875 13.90625 -6.453125 C 13.90625 -6.003906 13.875 -5.582031 13.8125 -5.1875 L 4.859375 -5.1875 C 4.941406 -4.613281 5.195312 -4.144531 5.625 -3.78125 C 6.0625 -3.414062 6.53125 -3.234375 7.03125 -3.234375 C 7.539062 -3.234375 7.921875 -3.28125 8.171875 -3.375 C 8.421875 -3.476562 8.601562 -3.582031 8.71875 -3.6875 C 8.832031 -3.789062 8.984375 -3.957031 9.171875 -4.1875 L 13.484375 -4.1875 C 13.109375 -2.882812 12.359375 -1.832031 11.234375 -1.03125 C 10.117188 -0.238281 8.796875 0.15625 7.265625 0.15625 Z M 9.75 -7.6875 C 9.6875 -8.289062 9.421875 -8.78125 8.953125 -9.15625 C 8.492188 -9.539062 7.945312 -9.734375 7.3125 -9.734375 C 6.675781 -9.734375 6.140625 -9.539062 5.703125 -9.15625 C 5.265625 -8.78125 4.992188 -8.289062 4.890625 -7.6875 Z M 9.75 -7.6875 "/></g></g></g><g fill="rgb(100%, 100%, 100%)" fill-opacity="1"><g transform="translate(238.044268, 23.32789)"><g><path d="M 5.734375 -12.984375 L 5.734375 -11.078125 C 6.554688 -12.441406 7.863281 -13.125 9.65625 -13.125 C 11.144531 -13.125 12.351562 -12.628906 13.28125 -11.640625 C 14.207031 -10.648438 14.671875 -9.300781 14.671875 -7.59375 L 14.671875 0 L 10.703125 0 L 10.703125 -7.046875 C 10.703125 -7.890625 10.476562 -8.539062 10.03125 -9 C 9.59375 -9.457031 8.984375 -9.6875 8.203125 -9.6875 C 7.429688 -9.6875 6.828125 -9.457031 6.390625 -9 C 5.953125 -8.539062 5.734375 -7.890625 5.734375 -7.046875 L 5.734375 0 L 1.75 0 L 1.75 -12.984375 Z M 5.734375 -12.984375 "/></g></g></g><g fill="rgb(100%, 100%, 100%)" fill-opacity="1"><g transform="translate(256.109468, 23.32789)"><g><path d="M 9.65625 -4.109375 C 10.226562 -4.671875 10.515625 -5.460938 10.515625 -6.484375 C 10.515625 -7.515625 10.226562 -8.304688 9.65625 -8.859375 C 9.082031 -9.410156 8.421875 -9.6875 7.671875 -9.6875 C 6.929688 -9.6875 6.273438 -9.40625 5.703125 -8.84375 C 5.128906 -8.289062 4.84375 -7.5 4.84375 -6.46875 C 4.84375 -5.445312 5.128906 -4.660156 5.703125 -4.109375 C 6.273438 -3.554688 6.929688 -3.28125 7.671875 -3.28125 C 8.421875 -3.28125 9.082031 -3.554688 9.65625 -4.109375 Z M 2.515625 -1.703125 C 1.367188 -2.941406 0.796875 -4.53125 0.796875 -6.46875 C 0.796875 -8.40625 1.367188 -10 2.515625 -11.25 C 3.660156 -12.5 5.0625 -13.125 6.71875 -13.125 C 8.375 -13.125 9.640625 -12.515625 10.515625 -11.296875 L 10.515625 -17.234375 L 14.5 -17.234375 L 14.5 0 L 10.515625 0 L 10.515625 -1.890625 C 9.554688 -0.523438 8.269531 0.15625 6.65625 0.15625 C 5.039062 0.15625 3.660156 -0.460938 2.515625 -1.703125 Z M 2.515625 -1.703125 "/></g></g></g><g fill="rgb(100%, 100%, 100%)" fill-opacity="1"><g transform="translate(67.51679, 45.982611)"><g><path d="M 1.65625 -5.625 C 1.65625 -5.34375 1.726562 -5.109375 1.875 -4.921875 C 2.03125 -4.742188 2.226562 -4.609375 2.46875 -4.515625 C 2.71875 -4.429688 2.992188 -4.351562 3.296875 -4.28125 C 3.597656 -4.21875 3.894531 -4.144531 4.1875 -4.0625 C 4.488281 -3.976562 4.757812 -3.867188 5 -3.734375 C 5.25 -3.597656 5.453125 -3.394531 5.609375 -3.125 C 5.765625 -2.863281 5.84375 -2.539062 5.84375 -2.15625 C 5.84375 -1.550781 5.613281 -1.023438 5.15625 -0.578125 C 4.695312 -0.140625 4.078125 0.078125 3.296875 0.078125 C 2.515625 0.078125 1.878906 -0.0976562 1.390625 -0.453125 C 0.910156 -0.816406 0.671875 -1.304688 0.671875 -1.921875 L 1.734375 -1.921875 C 1.765625 -1.566406 1.90625 -1.28125 2.15625 -1.0625 C 2.40625 -0.851562 2.769531 -0.75 3.25 -0.75 C 3.738281 -0.75 4.128906 -0.875 4.421875 -1.125 C 4.710938 -1.375 4.859375 -1.664062 4.859375 -2 C 4.859375 -2.34375 4.78125 -2.601562 4.625 -2.78125 C 4.46875 -2.96875 4.265625 -3.101562 4.015625 -3.1875 C 3.773438 -3.28125 3.503906 -3.359375 3.203125 -3.421875 C 2.910156 -3.484375 2.613281 -3.554688 2.3125 -3.640625 C 2.007812 -3.734375 1.734375 -3.847656 1.484375 -3.984375 C 1.242188 -4.117188 1.046875 -4.320312 0.890625 -4.59375 C 0.742188 -4.863281 0.671875 -5.195312 0.671875 -5.59375 C 0.671875 -6.238281 0.898438 -6.757812 1.359375 -7.15625 C 1.816406 -7.550781 2.414062 -7.75 3.15625 -7.75 C 3.90625 -7.75 4.5 -7.578125 4.9375 -7.234375 C 5.375 -6.890625 5.625 -6.414062 5.6875 -5.8125 L 4.578125 -5.8125 C 4.546875 -6.113281 4.398438 -6.367188 4.140625 -6.578125 C 3.890625 -6.796875 3.546875 -6.90625 3.109375 -6.90625 C 2.679688 -6.90625 2.332031 -6.796875 2.0625 -6.578125 C 1.789062 -6.367188 1.65625 -6.050781 1.65625 -5.625 Z M 1.65625 -5.625 "/></g></g></g><g fill="rgb(100%, 100%, 100%)" fill-opacity="1"><g transform="translate(76.463396, 45.982611)"><g><path d="M 4.890625 -7.671875 L 4.890625 -6.875 L 1.84375 -6.875 L 1.84375 -4.265625 L 4.5625 -4.265625 L 4.5625 -3.484375 L 1.84375 -3.484375 L 1.84375 -0.796875 L 4.890625 -0.796875 L 4.890625 0 L 0.828125 0 L 0.828125 -7.671875 Z M 4.890625 -7.671875 "/></g></g></g><g fill="rgb(100%, 100%, 100%)" fill-opacity="1"><g transform="translate(84.50106, 45.982611)"><g><path d="M 6.40625 -1.640625 C 6.945312 -2.203125 7.21875 -2.9375 7.21875 -3.84375 C 7.21875 -4.75 6.945312 -5.476562 6.40625 -6.03125 C 5.863281 -6.582031 5.171875 -6.859375 4.328125 -6.859375 C 3.492188 -6.859375 2.804688 -6.582031 2.265625 -6.03125 C 1.722656 -5.476562 1.453125 -4.75 1.453125 -3.84375 C 1.453125 -2.9375 1.722656 -2.203125 2.265625 -1.640625 C 2.816406 -1.085938 3.507812 -0.8125 4.34375 -0.8125 C 5.175781 -0.8125 5.863281 -1.085938 6.40625 -1.640625 Z M 4.34375 0.078125 C 3.238281 0.078125 2.3125 -0.289062 1.5625 -1.03125 C 0.8125 -1.78125 0.4375 -2.71875 0.4375 -3.84375 C 0.4375 -4.976562 0.8125 -5.910156 1.5625 -6.640625 C 2.3125 -7.378906 3.238281 -7.75 4.34375 -7.75 C 5.445312 -7.75 6.367188 -7.378906 7.109375 -6.640625 C 7.859375 -5.910156 8.234375 -4.976562 8.234375 -3.84375 C 8.234375 -2.707031 7.859375 -1.769531 7.109375 -1.03125 C 6.367188 -0.289062 5.445312 0.078125 4.34375 0.078125 Z M 4.34375 0.078125 "/></g></g></g><g fill="rgb(100%, 100%, 100%)" fill-opacity="1"><g transform="translate(95.609169, 45.982611)"><g/></g></g><g fill="rgb(100%, 100%, 100%)" fill-opacity="1"><g transform="translate(101.374477, 45.982611)"><g><path d="M 1.65625 -5.625 C 1.65625 -5.34375 1.726562 -5.109375 1.875 -4.921875 C 2.03125 -4.742188 2.226562 -4.609375 2.46875 -4.515625 C 2.71875 -4.429688 2.992188 -4.351562 3.296875 -4.28125 C 3.597656 -4.21875 3.894531 -4.144531 4.1875 -4.0625 C 4.488281 -3.976562 4.757812 -3.867188 5 -3.734375 C 5.25 -3.597656 5.453125 -3.394531 5.609375 -3.125 C 5.765625 -2.863281 5.84375 -2.539062 5.84375 -2.15625 C 5.84375 -1.550781 5.613281 -1.023438 5.15625 -0.578125 C 4.695312 -0.140625 4.078125 0.078125 3.296875 0.078125 C 2.515625 0.078125 1.878906 -0.0976562 1.390625 -0.453125 C 0.910156 -0.816406 0.671875 -1.304688 0.671875 -1.921875 L 1.734375 -1.921875 C 1.765625 -1.566406 1.90625 -1.28125 2.15625 -1.0625 C 2.40625 -0.851562 2.769531 -0.75 3.25 -0.75 C 3.738281 -0.75 4.128906 -0.875 4.421875 -1.125 C 4.710938 -1.375 4.859375 -1.664062 4.859375 -2 C 4.859375 -2.34375 4.78125 -2.601562 4.625 -2.78125 C 4.46875 -2.96875 4.265625 -3.101562 4.015625 -3.1875 C 3.773438 -3.28125 3.503906 -3.359375 3.203125 -3.421875 C 2.910156 -3.484375 2.613281 -3.554688 2.3125 -3.640625 C 2.007812 -3.734375 1.734375 -3.847656 1.484375 -3.984375 C 1.242188 -4.117188 1.046875 -4.320312 0.890625 -4.59375 C 0.742188 -4.863281 0.671875 -5.195312 0.671875 -5.59375 C 0.671875 -6.238281 0.898438 -6.757812 1.359375 -7.15625 C 1.816406 -7.550781 2.414062 -7.75 3.15625 -7.75 C 3.90625 -7.75 4.5 -7.578125 4.9375 -7.234375 C 5.375 -6.890625 5.625 -6.414062 5.6875 -5.8125 L 4.578125 -5.8125 C 4.546875 -6.113281 4.398438 -6.367188 4.140625 -6.578125 C 3.890625 -6.796875 3.546875 -6.90625 3.109375 -6.90625 C 2.679688 -6.90625 2.332031 -6.796875 2.0625 -6.578125 C 1.789062 -6.367188 1.65625 -6.050781 1.65625 -5.625 Z M 1.65625 -5.625 "/></g></g></g><g fill="rgb(100%, 100%, 100%)" fill-opacity="1"><g transform="translate(110.321083, 45.982611)"><g><path d="M 4.34375 0.0625 C 3.238281 0.0625 2.3125 -0.304688 1.5625 -1.046875 C 0.8125 -1.785156 0.4375 -2.71875 0.4375 -3.84375 C 0.4375 -4.976562 0.8125 -5.910156 1.5625 -6.640625 C 2.3125 -7.378906 3.238281 -7.75 4.34375 -7.75 C 5.132812 -7.75 5.84375 -7.5625 6.46875 -7.1875 C 7.09375 -6.8125 7.554688 -6.269531 7.859375 -5.5625 L 6.640625 -5.5625 C 6.179688 -6.425781 5.414062 -6.859375 4.34375 -6.859375 C 3.507812 -6.859375 2.820312 -6.582031 2.28125 -6.03125 C 1.738281 -5.476562 1.46875 -4.75 1.46875 -3.84375 C 1.46875 -2.9375 1.738281 -2.203125 2.28125 -1.640625 C 2.820312 -1.085938 3.507812 -0.8125 4.34375 -0.8125 C 4.851562 -0.8125 5.304688 -0.925781 5.703125 -1.15625 C 6.097656 -1.382812 6.410156 -1.707031 6.640625 -2.125 L 7.859375 -2.125 C 7.554688 -1.414062 7.09375 -0.875 6.46875 -0.5 C 5.84375 -0.125 5.132812 0.0625 4.34375 0.0625 Z M 4.34375 0.0625 "/></g></g></g><g fill="rgb(100%, 100%, 100%)" fill-opacity="1"><g transform="translate(121.373761, 45.982611)"><g><path d="M 0.828125 0 L 0.828125 -7.671875 L 1.84375 -7.671875 L 1.84375 0 Z M 0.828125 0 "/></g></g></g><g fill="rgb(100%, 100%, 100%)" fill-opacity="1"><g transform="translate(126.485074, 45.982611)"><g><path d="M 4.890625 -7.671875 L 4.890625 -6.875 L 1.84375 -6.875 L 1.84375 -4.265625 L 4.5625 -4.265625 L 4.5625 -3.484375 L 1.84375 -3.484375 L 1.84375 -0.796875 L 4.890625 -0.796875 L 4.890625 0 L 0.828125 0 L 0.828125 -7.671875 Z M 4.890625 -7.671875 "/></g></g></g><g fill="rgb(100%, 100%, 100%)" fill-opacity="1"><g transform="translate(134.522737, 45.982611)"><g><path d="M 5.890625 -7.671875 L 6.90625 -7.671875 L 6.90625 0 L 5.890625 0 L 1.84375 -6.09375 L 1.84375 0 L 0.828125 0 L 0.828125 -7.671875 L 1.84375 -7.671875 L 5.890625 -1.578125 Z M 5.890625 -7.671875 "/></g></g></g><g fill="rgb(100%, 100%, 100%)" fill-opacity="1"><g transform="translate(144.699734, 45.982611)"><g><path d="M 0.484375 -6.875 L 0.484375 -7.671875 L 5.546875 -7.671875 L 5.546875 -6.875 L 3.515625 -6.875 L 3.515625 0 L 2.515625 0 L 2.515625 -6.875 Z M 0.484375 -6.875 "/></g></g></g><g fill="rgb(100%, 100%, 100%)" fill-opacity="1"><g transform="translate(153.191869, 45.982611)"><g><path d="M 0.828125 0 L 0.828125 -7.671875 L 1.84375 -7.671875 L 1.84375 0 Z M 0.828125 0 "/></g></g></g><g fill="rgb(100%, 100%, 100%)" fill-opacity="1"><g transform="translate(158.303181, 45.982611)"><g><path d="M 1.65625 -5.625 C 1.65625 -5.34375 1.726562 -5.109375 1.875 -4.921875 C 2.03125 -4.742188 2.226562 -4.609375 2.46875 -4.515625 C 2.71875 -4.429688 2.992188 -4.351562 3.296875 -4.28125 C 3.597656 -4.21875 3.894531 -4.144531 4.1875 -4.0625 C 4.488281 -3.976562 4.757812 -3.867188 5 -3.734375 C 5.25 -3.597656 5.453125 -3.394531 5.609375 -3.125 C 5.765625 -2.863281 5.84375 -2.539062 5.84375 -2.15625 C 5.84375 -1.550781 5.613281 -1.023438 5.15625 -0.578125 C 4.695312 -0.140625 4.078125 0.078125 3.296875 0.078125 C 2.515625 0.078125 1.878906 -0.0976562 1.390625 -0.453125 C 0.910156 -0.816406 0.671875 -1.304688 0.671875 -1.921875 L 1.734375 -1.921875 C 1.765625 -1.566406 1.90625 -1.28125 2.15625 -1.0625 C 2.40625 -0.851562 2.769531 -0.75 3.25 -0.75 C 3.738281 -0.75 4.128906 -0.875 4.421875 -1.125 C 4.710938 -1.375 4.859375 -1.664062 4.859375 -2 C 4.859375 -2.34375 4.78125 -2.601562 4.625 -2.78125 C 4.46875 -2.96875 4.265625 -3.101562 4.015625 -3.1875 C 3.773438 -3.28125 3.503906 -3.359375 3.203125 -3.421875 C 2.910156 -3.484375 2.613281 -3.554688 2.3125 -3.640625 C 2.007812 -3.734375 1.734375 -3.847656 1.484375 -3.984375 C 1.242188 -4.117188 1.046875 -4.320312 0.890625 -4.59375 C 0.742188 -4.863281 0.671875 -5.195312 0.671875 -5.59375 C 0.671875 -6.238281 0.898438 -6.757812 1.359375 -7.15625 C 1.816406 -7.550781 2.414062 -7.75 3.15625 -7.75 C 3.90625 -7.75 4.5 -7.578125 4.9375 -7.234375 C 5.375 -6.890625 5.625 -6.414062 5.6875 -5.8125 L 4.578125 -5.8125 C 4.546875 -6.113281 4.398438 -6.367188 4.140625 -6.578125 C 3.890625 -6.796875 3.546875 -6.90625 3.109375 -6.90625 C 2.679688 -6.90625 2.332031 -6.796875 2.0625 -6.578125 C 1.789062 -6.367188 1.65625 -6.050781 1.65625 -5.625 Z M 1.65625 -5.625 "/></g></g></g><g fill="rgb(100%, 100%, 100%)" fill-opacity="1"><g transform="translate(167.249792, 45.982611)"><g><path d="M 0.484375 -6.875 L 0.484375 -7.671875 L 5.546875 -7.671875 L 5.546875 -6.875 L 3.515625 -6.875 L 3.515625 0 L 2.515625 0 L 2.515625 -6.875 Z M 0.484375 -6.875 "/></g></g></g><g fill="rgb(100%, 100%, 100%)" fill-opacity="1"><g transform="translate(175.741932, 45.982611)"><g><path d="M 1.65625 -5.625 C 1.65625 -5.34375 1.726562 -5.109375 1.875 -4.921875 C 2.03125 -4.742188 2.226562 -4.609375 2.46875 -4.515625 C 2.71875 -4.429688 2.992188 -4.351562 3.296875 -4.28125 C 3.597656 -4.21875 3.894531 -4.144531 4.1875 -4.0625 C 4.488281 -3.976562 4.757812 -3.867188 5 -3.734375 C 5.25 -3.597656 5.453125 -3.394531 5.609375 -3.125 C 5.765625 -2.863281 5.84375 -2.539062 5.84375 -2.15625 C 5.84375 -1.550781 5.613281 -1.023438 5.15625 -0.578125 C 4.695312 -0.140625 4.078125 0.078125 3.296875 0.078125 C 2.515625 0.078125 1.878906 -0.0976562 1.390625 -0.453125 C 0.910156 -0.816406 0.671875 -1.304688 0.671875 -1.921875 L 1.734375 -1.921875 C 1.765625 -1.566406 1.90625 -1.28125 2.15625 -1.0625 C 2.40625 -0.851562 2.769531 -0.75 3.25 -0.75 C 3.738281 -0.75 4.128906 -0.875 4.421875 -1.125 C 4.710938 -1.375 4.859375 -1.664062 4.859375 -2 C 4.859375 -2.34375 4.78125 -2.601562 4.625 -2.78125 C 4.46875 -2.96875 4.265625 -3.101562 4.015625 -3.1875 C 3.773438 -3.28125 3.503906 -3.359375 3.203125 -3.421875 C 2.910156 -3.484375 2.613281 -3.554688 2.3125 -3.640625 C 2.007812 -3.734375 1.734375 -3.847656 1.484375 -3.984375 C 1.242188 -4.117188 1.046875 -4.320312 0.890625 -4.59375 C 0.742188 -4.863281 0.671875 -5.195312 0.671875 -5.59375 C 0.671875 -6.238281 0.898438 -6.757812 1.359375 -7.15625 C 1.816406 -7.550781 2.414062 -7.75 3.15625 -7.75 C 3.90625 -7.75 4.5 -7.578125 4.9375 -7.234375 C 5.375 -6.890625 5.625 -6.414062 5.6875 -5.8125 L 4.578125 -5.8125 C 4.546875 -6.113281 4.398438 -6.367188 4.140625 -6.578125 C 3.890625 -6.796875 3.546875 -6.90625 3.109375 -6.90625 C 2.679688 -6.90625 2.332031 -6.796875 2.0625 -6.578125 C 1.789062 -6.367188 1.65625 -6.050781 1.65625 -5.625 Z M 1.65625 -5.625 "/></g></g></g></svg>